<svg width="170" height="77" viewBox="0 0 170 77" fill="none" xmlns="http://www.w3.org/2000/svg">
<g filter="url(#filter0_d)">
<path d="M76.8886 9.89331H21.0724C19.9278 9.89331 19 10.7588 19 11.8265V34.1288C19 35.1964 19.9278 36.0619 21.0724 36.0619H76.8886C78.0331 36.0619 78.961 35.1964 78.961 34.1288V11.8265C78.961 10.7588 78.0331 9.89331 76.8886 9.89331Z" fill="#00796B" stroke="white" stroke-width="0.837727"/>
<path d="M19.4202 15.125C20.93 15.125 22.1539 16.2667 22.1539 17.675V28.4981C22.1539 29.9065 20.93 31.0482 19.4202 31.0482V15.125Z" fill="white"/>
<path d="M77.6378 18.5498C77.6378 18.3989 77.5067 18.2766 77.3449 18.2766C77.1831 18.2766 77.052 18.3989 77.052 18.5498V27.6236C77.052 27.7745 77.1831 27.8968 77.3449 27.8968C77.5067 27.8968 77.6378 27.7745 77.6378 27.6236V18.5498Z" fill="white"/>
<path d="M77.7242 36.6272H20.5341V41.2509H77.7242V36.6272Z" fill="#B25D00"/>
<path d="M43.3172 40.9626L39.2944 39.2693L30.9531 57.1879L34.9758 58.8812L43.3172 40.9626Z" fill="#B25D00"/>
<path d="M55.0336 40.9627L59.0562 39.2693L67.3982 57.1876L63.3756 58.881L55.0336 40.9627Z" fill="#B25D00"/>
<path d="M53.8758 5.87988H44.3827V9.40271H53.8758V5.87988Z" fill="#B25D00"/>
</g>
<path d="M103.377 41.992C103.831 42.543 104.252 43.0779 104.641 43.5965C105.062 44.0827 105.484 44.6013 105.905 45.1524C104.998 45.8655 103.977 46.4327 102.842 46.8541C101.708 47.2755 100.476 47.4862 99.1469 47.4862C97.6558 47.4862 96.2458 47.2107 94.9168 46.6596C93.6202 46.0762 92.4857 45.2982 91.5133 44.3258C90.5408 43.3534 89.7629 42.2189 89.1794 40.9223C88.6284 39.6257 88.3529 38.2481 88.3529 36.7895C88.3529 35.3308 88.6284 33.9532 89.1794 32.6566C89.7629 31.36 90.5408 30.2417 91.5133 29.3017C92.4857 28.3293 93.6202 27.5676 94.9168 27.0165C96.2458 26.433 97.6558 26.1413 99.1469 26.1413C100.508 26.1413 101.756 26.352 102.891 26.7734C104.058 27.1948 105.111 27.762 106.051 28.4752L103.377 31.6356C102.826 31.1818 102.194 30.8414 101.481 30.6145C100.768 30.3552 99.9896 30.2255 99.1469 30.2255C98.1744 30.2255 97.283 30.4038 96.4727 30.7604C95.6623 31.0845 94.9492 31.5383 94.3333 32.1218C93.7499 32.7052 93.2961 33.4021 92.9719 34.2125C92.6478 34.9905 92.4857 35.8494 92.4857 36.7895C92.4857 37.7295 92.6478 38.6047 92.9719 39.415C93.2961 40.193 93.7499 40.8899 94.3333 41.5058C94.9492 42.0892 95.6623 42.5592 96.4727 42.9158C97.283 43.2399 98.1744 43.402 99.1469 43.402C99.9896 43.402 100.768 43.2885 101.481 43.0616C102.194 42.8023 102.826 42.4458 103.377 41.992ZM115.289 47H111.157V9.22099H115.289V47ZM121.757 18.8967C121.757 18.1187 122.032 17.4705 122.584 16.9518C123.167 16.4332 123.783 16.1739 124.431 16.1739C125.079 16.1739 125.679 16.4332 126.23 16.9518C126.781 17.4705 127.057 18.1187 127.057 18.8967C127.057 19.6746 126.781 20.3229 126.23 20.8416C125.679 21.3278 125.079 21.5709 124.431 21.5709C123.783 21.5709 123.167 21.3278 122.584 20.8416C122.032 20.3229 121.757 19.6746 121.757 18.8967ZM126.425 47H122.292V26.6762H126.425V47ZM135.131 17.7298H139.264V26.7248H144.71V30.42H139.264V47H135.131V30.42H131.484V26.7248H135.131V17.7298ZM166.05 44.6175C165.078 45.4927 163.894 46.1896 162.501 46.7083C161.107 47.2269 159.681 47.4862 158.222 47.4862C156.731 47.4862 155.321 47.2107 153.992 46.6596C152.695 46.0762 151.561 45.3144 150.588 44.3744C149.616 43.402 148.838 42.2675 148.255 40.9709C147.703 39.6743 147.428 38.2967 147.428 36.8381C147.428 35.3794 147.703 34.0018 148.255 32.7052C148.838 31.4087 149.616 30.2742 150.588 29.3017C151.561 28.3293 152.679 27.5676 153.943 27.0165C155.24 26.433 156.617 26.1413 158.076 26.1413C160.378 26.1413 162.371 26.8382 164.057 28.232C165.775 29.5935 167.006 31.3925 167.752 33.629C166.747 33.9856 165.596 34.4232 164.3 34.9418C163.003 35.4605 161.658 36.0115 160.264 36.595C158.87 37.146 157.476 37.6971 156.083 38.2481C154.689 38.7992 153.392 39.3016 152.193 39.7554C152.744 40.8575 153.538 41.7489 154.575 42.4296C155.645 43.0779 156.828 43.402 158.125 43.402C159 43.402 159.875 43.2399 160.75 42.9158C161.658 42.5916 162.387 42.154 162.938 41.603L166.05 44.6175ZM162.549 32.6566C162.16 31.8463 161.544 31.2466 160.702 30.8576C159.859 30.4362 159 30.2255 158.125 30.2255C157.185 30.2255 156.309 30.4038 155.499 30.7604C154.721 31.1169 154.04 31.6031 153.457 32.219C152.874 32.8025 152.404 33.4832 152.047 34.2611C151.723 35.0391 151.561 35.8332 151.561 36.6436C151.561 36.8057 151.561 36.9191 151.561 36.9839C151.593 37.0488 151.609 37.0974 151.609 37.1298C152.452 36.8057 153.36 36.4491 154.332 36.0601C155.337 35.6387 156.326 35.2336 157.298 34.8446C158.271 34.4232 159.211 34.0342 160.118 33.6777C161.026 33.2887 161.836 32.9483 162.549 32.6566Z" fill="black"/>
<defs>
<filter id="filter0_d" x="0.942562" y="0.00036478" width="84.3168" height="76.5194" filterUnits="userSpaceOnUse" color-interpolation-filters="sRGB">
<feFlood flood-opacity="0" result="BackgroundImageFix"/>
<feColorMatrix in="SourceAlpha" type="matrix" values="0 0 0 0 0 0 0 0 0 0 0 0 0 0 0 0 0 0 127 0"/>
<feOffset dx="-5.87952" dy="5.87952"/>
<feGaussianBlur stdDeviation="5.87952"/>
<feColorMatrix type="matrix" values="0 0 0 0 0 0 0 0 0 0 0 0 0 0 0 0 0 0 0.25 0"/>
<feBlend mode="normal" in2="BackgroundImageFix" result="effect1_dropShadow"/>
<feBlend mode="normal" in="SourceGraphic" in2="effect1_dropShadow" result="shape"/>
</filter>
</defs>
</svg>
