<svg width="240" height="196.04" viewBox="0 0 202 165" fill="none" xmlns="http://www.w3.org/2000/svg">
<g clip-path="url(#clip0)">
<path opacity="0.1" d="M197.088 95.6498C197.088 95.7751 197.088 95.9005 197.088 96.0238C197.066 98.1853 196.938 100.341 196.704 102.492C196.705 102.505 196.705 102.518 196.704 102.531C196.685 102.71 196.665 102.887 196.644 103.065C196.609 103.367 196.572 103.667 196.531 103.969C196.052 107.646 195.259 111.275 194.162 114.816C192.691 119.602 190.612 124.179 187.976 128.435C187.165 129.736 186.301 130.996 185.384 132.214C184.895 132.859 184.396 133.489 183.88 134.11C183.518 134.544 183.149 134.972 182.774 135.392L182.54 135.651C180.564 137.819 178.435 139.842 176.169 141.704C172.469 144.77 168.486 147.437 164.44 149.911C164.21 150.053 163.977 150.192 163.745 150.322C163.729 150.333 163.712 150.344 163.694 150.353C158.194 153.677 152.491 156.677 146.615 159.079C140.183 161.715 133.54 163.632 126.726 164.471C117.227 165.638 107.613 164.688 98.1711 163.057C90.3189 161.708 82.5618 159.855 74.9478 157.509L73.6941 157.117C73.0447 156.91 72.396 156.699 71.7479 156.484C67.8335 155.189 63.9629 153.751 60.1362 152.169C50.5252 148.211 41.3437 143.282 32.7347 137.459C31.6386 136.722 30.5583 135.969 29.4937 135.199C28.0058 134.128 26.5357 133.025 25.0833 131.891L24.1873 131.196C20.3866 128.221 16.8257 124.951 13.5374 121.418C9.11472 116.606 5.33528 111.177 2.85058 104.98C2.45873 104.006 2.09976 103.014 1.77368 102.003L1.74285 101.902C1.57844 101.389 1.42635 100.875 1.2866 100.341C1.08109 99.5764 0.900918 98.8024 0.746095 98.0189C0.713213 97.8689 0.68444 97.7189 0.657723 97.5668C0.166516 94.93 -0.0504321 92.2494 0.0103465 89.5678C0.0617472 87.2183 0.337014 84.8791 0.832412 82.5818C1.33947 80.2004 2.12084 77.8857 3.16091 75.6841C4.10082 73.7044 5.2984 71.8577 6.72251 70.1918C7.72322 69.0272 8.84864 67.9757 10.0786 67.0563C12.3084 65.3961 14.7808 64.2393 17.3436 63.325C18.5479 62.8935 19.7687 62.5154 20.9956 62.1641C21.865 61.9134 22.7384 61.675 23.6077 61.4408L26.1726 60.7484C27.8167 60.3004 29.4608 59.8402 31.0803 59.3429C35.4948 57.995 39.8209 56.3636 43.8223 53.9308C44.4553 53.5466 45.1006 53.1254 45.746 52.6733C46.568 52.1021 47.3778 51.4816 48.1793 50.8117C48.989 50.1337 49.7823 49.4084 50.5386 48.6399C50.6557 48.5207 50.7708 48.4016 50.8859 48.2803C51.5025 47.631 52.1005 46.9509 52.6554 46.2441C52.9267 45.8989 53.1898 45.5476 53.4405 45.19C53.7878 44.6949 54.1166 44.1914 54.4208 43.6737C55.9457 41.0847 56.887 38.2287 56.776 35.2185C56.7598 34.7225 56.7152 34.2279 56.6424 33.737C56.3753 31.9227 56.1184 30.1516 55.9293 28.4194C55.136 21.2546 55.471 14.7576 60.8494 8.65305C67.5369 1.06497 78.0326 -0.482228 87.587 0.123913C115.21 1.87042 140.357 17.6383 162.457 36.4102C164.368 38.0321 166.256 39.6759 168.121 41.3415C168.591 41.7607 169.061 42.1826 169.533 42.6073C173.026 45.753 176.467 49.0159 179.671 52.511C179.93 52.7945 180.189 53.0781 180.443 53.3637C180.6 53.5404 180.758 53.7151 180.912 53.8938C181.911 55.0239 182.88 56.1814 183.82 57.3663C186.338 60.5119 188.561 63.8821 190.462 67.4344C193.373 73.0093 195.344 79.0262 196.295 85.2427C196.652 87.5001 196.888 89.7753 197 92.0581C197.035 92.73 197.057 93.404 197.07 94.0759C197.07 94.2916 197.07 94.5053 197.07 94.7211C197.09 95.0334 197.09 95.3375 197.088 95.6498Z" fill="#F9CF5A"/>
<path d="M80.9694 92.2035L77.6812 150.72L80.9694 150.763L83.6411 91.3816L80.9694 92.2035Z" fill="#3F3D56"/>
<path d="M68.8439 121.851H28.1517V130.686H68.8439V121.851Z" fill="#F9CF5A"/>
<path d="M71.5156 129.657V135.204H29.4814C27.9934 134.133 26.5233 133.031 25.071 131.896V129.657H71.5156Z" fill="#3F3D56"/>
<path d="M79.9089 117.031C79.7938 117.563 79.6438 118.089 79.4855 118.613C79.019 120.127 78.4579 121.621 78.349 123.195C78.2031 125.274 78.76 127.692 77.3214 129.203C76.9515 129.593 76.4685 129.885 76.1376 130.302C76.0867 130.367 76.04 130.436 75.9979 130.507C75.702 130.996 75.667 131.592 75.6629 132.151C75.6664 133.343 75.7439 134.534 75.8951 135.716C76.3822 139.784 77.344 143.861 76.0801 147.701C75.8511 148.367 75.5842 149.02 75.2806 149.655C74.6641 151.011 73.9921 152.349 73.7906 153.818C73.6427 154.907 73.6879 156.029 73.6797 157.137C73.0302 156.93 72.3815 156.719 71.7334 156.504C67.819 155.209 63.9485 153.771 60.1218 152.189C60.132 152.133 60.1423 152.076 60.1505 152.02C60.4444 150.192 60.0416 148.322 59.5525 146.538C58.5249 142.76 57.0698 139.018 56.2087 135.213C55.8619 133.726 55.6345 132.215 55.5285 130.692C55.5038 130.351 55.4894 130.008 55.4874 129.665C55.4771 129.217 55.4874 128.769 55.5059 128.317C55.549 127.415 55.5881 126.345 54.8667 125.796C54.4701 125.498 53.946 125.447 53.4836 125.266C52.5916 124.919 51.9813 124.113 51.2743 123.468C50.937 123.141 50.5253 122.901 50.0745 122.768C49.6237 122.636 49.1474 122.615 48.6868 122.708C44.0668 123.766 40.6717 127.684 36.3723 129.665C36.2058 129.743 36.0393 129.817 35.8708 129.887C35.3147 130.09 34.7854 130.361 34.2945 130.692C33.9496 130.932 33.6995 131.284 33.5875 131.689C33.4786 132.124 33.5732 132.581 33.6266 133.029C33.7131 133.757 33.6818 134.494 33.5341 135.213C33.4784 135.491 33.4049 135.766 33.3142 136.035C33.1498 136.522 32.9299 136.998 32.7203 137.473C31.6242 136.736 30.5438 135.983 29.4793 135.213C27.9913 134.141 26.5212 133.039 25.0689 131.905L24.1872 131.196C20.3865 128.22 16.8256 124.951 13.5374 121.417C13.9751 120.184 14.6081 119.038 14.9123 117.774C15.0849 117.049 15.1486 116.295 15.387 115.59C15.6619 114.859 16.0443 114.174 16.5215 113.556C18.2691 111.119 20.403 108.984 22.839 107.236C25.3854 105.411 28.3263 103.948 30.6178 101.877C31.5478 101.063 32.3494 100.113 32.9956 99.0599C33.0347 98.9962 33.0717 98.9284 33.1046 98.8545C33.2834 98.4826 33.4074 98.0867 33.4724 97.6792C33.6369 96.7587 33.6122 95.7477 33.6944 94.8642C36.4859 95.3473 39.3317 95.4331 42.1473 95.119C45.4253 94.7512 48.6313 93.841 51.9093 93.4876C52.1559 93.4588 52.4046 93.4362 52.6533 93.4156C53.7035 93.3314 54.7557 93.3129 55.81 93.3252C56.6917 93.3252 57.5734 93.3643 58.455 93.393L68.1616 93.7218C69.2364 93.7588 70.3339 93.7999 71.3347 94.1923C72.5226 94.6587 73.4742 95.5875 74.2366 96.6087C74.3332 96.7402 74.4298 96.8717 74.5202 97.0073C75.1476 97.9223 75.6508 98.9166 76.0164 99.964C76.0554 100.071 76.0924 100.169 76.1274 100.287C76.2199 100.572 76.3 100.86 76.3719 101.152C76.4274 101.38 76.4768 101.608 76.522 101.838C76.748 102.976 76.8816 104.139 77.2392 105.238C77.2639 105.319 77.2906 105.399 77.3194 105.477C77.7489 106.681 78.462 107.76 79.0005 108.916C79.3887 109.754 79.685 110.631 79.8842 111.532C80.2868 113.342 80.2952 115.217 79.9089 117.031Z" fill="#35323E"/>
<path d="M50.4051 43.4985C49.5378 42.8081 48.28 43.3136 47.2648 43.7594C46.4136 44.1353 45.5373 44.4518 44.6424 44.7067C44.4592 44.7771 44.2606 44.7977 44.0669 44.7662C43.6559 44.6676 43.4833 44.1807 43.1771 43.8848C42.6448 43.3732 41.7734 43.4944 41.0869 43.7718C40.4005 44.0491 39.7223 44.4498 38.9866 44.3882C38.2015 44.3265 37.5192 43.7471 36.7259 43.7286C35.3284 43.6957 34.1549 45.4176 32.8334 44.9614C32.0278 44.6841 31.3948 43.6362 30.6015 43.9341C29.985 44.1683 29.9295 45.021 29.5575 45.5779C29.1197 46.2272 28.2668 46.41 27.5372 46.6977C25.2375 47.6059 23.7146 50.1681 24.0147 52.6214C24.1812 53.9755 24.8368 55.2165 25.2704 56.509C26.5569 60.267 26.1151 64.5059 27.7366 68.1304C27.9421 67.9373 28.0572 67.8654 28.2566 67.6743C27.7439 68.7374 27.645 69.9532 27.9791 71.0851C28.1497 71.6543 28.4271 72.1844 28.6368 72.7412C28.8545 73.3658 29.0303 74.0042 29.1629 74.6521L30.9509 82.5381C31.6496 85.6202 32.3504 88.7023 32.4717 91.8583C32.5472 93.9105 32.39 95.9646 32.0031 97.9814C35.2421 97.4451 38.2056 96.0089 41.4877 96.0274C42.692 96.0274 43.8861 96.2328 45.0801 96.3972C48.5614 96.8843 52.073 97.1225 55.5882 97.1102C56.1349 97.1413 56.6824 97.0645 57.1994 96.8842C57.6516 96.691 58.0215 96.3479 58.449 96.0993C59.2854 95.6061 60.2986 95.4829 61.2625 95.4829C65.6585 95.4027 69.8942 97.0116 74.2614 97.5787C75.9857 93.9603 76.0884 89.6249 74.7649 85.8421C74.3724 84.7182 73.8442 83.623 73.688 82.4416C73.6253 81.7153 73.6088 80.9858 73.6387 80.2574C73.6318 78.3927 73.2958 76.5438 72.646 74.796C72.3912 74.1117 72.085 73.4152 72.1117 72.6858C72.1384 71.9563 72.4981 71.2762 72.8516 70.631C73.5688 69.316 74.2902 67.9887 75.3034 66.8791C76.3412 65.7326 77.6401 64.8593 78.9246 64.0025L82.0957 61.8738C81.662 59.1349 81.103 56.2501 79.9419 53.731C78.7807 51.2119 77.0441 48.8962 74.695 47.423C73.9031 46.9467 73.0742 46.5344 72.2165 46.1902C71.0163 45.6847 69.7668 45.2388 68.4658 45.1628C66.9861 45.0786 65.529 45.4751 64.0678 45.7217C59.4683 46.4963 54.055 46.4018 50.4051 43.4985Z" fill="#F9CF5A"/>
<path d="M85.0798 91.0282L83.5713 92.9329L80.7269 96.5225L77.4387 100.671L76.52 101.83H74.7382L30.6159 101.881L2.98418 101.912H1.75108C1.58667 101.398 1.43459 100.885 1.29483 100.35C1.08932 99.5861 0.909149 98.8121 0.754327 98.0286C0.721444 97.8786 0.692672 97.7286 0.665955 97.5766L10.691 91.0241L14.4602 91.0035L25.9897 90.9378L32.4285 90.9008H33.6041H34.3419L38.633 90.8782L71.3389 90.6912L73.0118 90.6809H73.7373L75.6589 90.6707L82.8088 90.6296L84.1816 90.1077L84.2824 90.2145L85.0798 91.0282Z" fill="#3F3D56"/>
<path d="M84.4631 90.0007L84.2926 90.2062L83.1704 91.5274L80.8604 94.254L76.0164 99.9641L33.1046 98.8689L0.746034 98.047C0.713152 97.897 0.684379 97.747 0.657662 97.595C0.166455 94.9581 -0.0504932 92.2775 0.0102855 89.596L3.5986 87.7591L4.42067 87.3358L10.8184 84.0482L16.4331 81.1716L31.0782 83.0743L34.3212 83.4955L35.7886 83.6845L37.9363 83.964L38.1171 83.9886L71.7951 88.3549L75.517 88.8378L77.7016 89.1213L84.4344 89.9966L84.4631 90.0007Z" fill="#504F60"/>
<path d="M77.4756 99.8633L77.4407 100.671L77.2352 105.23L76.1295 130.298L75.8952 135.716L75.2787 149.655L74.9313 157.529L73.6777 157.136C73.0283 156.93 72.3795 156.719 71.7314 156.504L74.7382 101.848L74.8019 100.702L76.1254 100.291L77.4756 99.8633Z" fill="#3F3D56"/>
<path d="M3.07872 99.8037L2.98624 101.914L2.8506 104.996C2.45875 104.022 2.09978 103.03 1.7737 102.019L1.74287 101.918C1.57845 101.404 1.42637 100.891 1.28662 100.356L3.07872 99.8037Z" fill="#3F3D56"/>
<path d="M56.8212 68.7363C62.0424 68.7363 66.275 63.0328 66.275 55.9971C66.275 48.9614 62.0424 43.2578 56.8212 43.2578C51.6001 43.2578 47.3675 48.9614 47.3675 55.9971C47.3675 63.0328 51.6001 68.7363 56.8212 68.7363Z" fill="#A1616A"/>
<path opacity="0.1" d="M56.8212 68.7363C62.0424 68.7363 66.275 63.0328 66.275 55.9971C66.275 48.9614 62.0424 43.2578 56.8212 43.2578C51.6001 43.2578 47.3675 48.9614 47.3675 55.9971C47.3675 63.0328 51.6001 68.7363 56.8212 68.7363Z" fill="black"/>
<path d="M58.1571 61.4422C65.4213 61.4422 71.3101 55.5547 71.3101 48.292C71.3101 41.0294 65.4213 35.1418 58.1571 35.1418C50.8929 35.1418 45.004 41.0294 45.004 48.292C45.004 55.5547 50.8929 61.4422 58.1571 61.4422Z" fill="#A1616A"/>
<path d="M58.4181 28.0243C57.6151 28.0884 56.8177 28.2099 56.032 28.388C53.9522 28.8935 52.1539 30.0154 50.4029 31.1167C49.6179 31.6119 48.8102 32.1276 48.3231 32.855C47.4476 34.1597 47.7867 35.8199 47.2955 37.2685C47.0407 38.0123 46.5721 38.6801 46.1755 39.3725C45.0842 41.2711 44.5128 43.3566 43.9518 45.4216C43.8367 45.849 43.8038 46.4284 44.2703 46.5928C44.539 46.6486 44.8184 46.6169 45.0677 46.5024C46.5413 46.0154 48.4135 45.8757 49.5069 46.864C50.6002 47.8524 50.5078 49.605 51.8087 50.3571C53.2987 51.2262 55.6251 50.1763 56.9774 51.2016C57.557 51.6413 57.7666 52.346 58.2413 52.8761C59.347 54.109 61.4741 54.0494 63.2436 53.8008C64.2589 53.6569 65.5043 53.5604 66.1208 54.2734C66.4168 54.6103 66.501 55.0726 66.8442 55.3767C67.4608 55.9274 68.5891 55.648 69.1912 55.0829C69.7934 54.5179 70.0811 53.7535 70.5826 53.1186C71.5588 51.8858 73.2749 51.2139 74.2819 49.9954C75.1245 48.9681 75.3793 47.6818 75.6095 46.4408L76.4665 41.8403C76.8138 39.9746 77.1303 37.9363 76.0802 36.2925C75.7061 35.7008 75.1697 35.1912 74.8471 34.5789C74.6313 34.1679 74.51 33.7344 74.2593 33.3461C73.962 32.9415 73.6067 32.5829 73.205 32.2817L71.1765 30.603C70.483 29.9961 69.7414 29.4464 68.959 28.9592C66.0633 27.2723 61.7269 27.7161 58.4181 28.0243Z" fill="#464353"/>
<path d="M15.0952 61.8984C14.6082 62.4162 14.1581 62.975 13.6361 63.46C13.1769 63.8682 12.6967 64.2523 12.1975 64.6106C11.3918 65.2133 10.604 65.8373 9.83403 66.4824C9.0307 67.1174 8.30379 67.8435 7.66789 68.6461C6.57043 70.1193 6.05047 71.9521 5.02289 73.4746C4.11451 74.8246 2.83414 75.891 1.91137 77.2307C1.50655 77.7939 1.20586 78.4251 1.02354 79.0943C0.887448 79.742 0.826077 80.4031 0.84063 81.0648C0.822134 82.1497 0.805693 83.2469 1.02765 84.3092C1.24961 85.3715 1.73668 86.4153 2.57108 87.1118C3.34588 87.759 4.34674 88.057 5.32705 88.3035C5.83262 88.4289 6.3793 88.546 6.8602 88.3467C7.21211 88.169 7.51756 87.9114 7.75215 87.5947L10.2533 84.7181C11.9262 82.7866 13.6649 80.8141 15.9605 79.684C16.6798 79.3326 17.4381 79.0676 18.1595 78.7265C21.2176 77.2533 23.3796 74.237 24.2181 70.9494C24.4236 70.146 24.5552 69.3262 24.6888 68.5063L25.0505 66.2585C25.0782 66.1458 25.0782 66.028 25.0505 65.9153C24.9938 65.7886 24.9027 65.6804 24.7874 65.603C23.0453 64.1964 21.4141 62.6577 19.9084 61.0005C19.5508 60.606 19.2159 60.0656 18.8028 59.7348C18.2849 59.3238 18.3239 59.3546 17.7012 59.7348C16.7433 60.3411 15.8674 61.0683 15.0952 61.8984Z" fill="#A1616A"/>
<path d="M32.2044 76.8568C32.1836 76.809 32.1534 76.766 32.1156 76.7302C32.0777 76.6945 32.033 76.6668 31.9842 76.6487C31.9353 76.6307 31.8834 76.6227 31.8314 76.6252C31.7793 76.6278 31.7284 76.6408 31.6815 76.6635C31.6347 76.6862 31.5929 76.7182 31.5588 76.7575C31.5246 76.7967 31.4987 76.8425 31.4826 76.892C31.4666 76.9415 31.4607 76.9938 31.4654 77.0456C31.4701 77.0975 31.4852 77.1479 31.5098 77.1937L31.3043 77.2944L37.4328 89.8528L38.5405 89.3124L32.412 76.7458L32.2044 76.8568Z" fill="#3F3D56"/>
<path opacity="0.04" d="M15.0952 61.8984C14.6082 62.4162 14.1581 62.975 13.6361 63.46C13.1769 63.8682 12.6967 64.2523 12.1975 64.6106C11.3918 65.2133 10.604 65.8373 9.83403 66.4824C9.0307 67.1174 8.30379 67.8435 7.66789 68.6461C6.57043 70.1193 6.05047 71.9521 5.02289 73.4746C4.11451 74.8246 2.83414 75.891 1.91137 77.2307C1.50655 77.7939 1.20586 78.4251 1.02354 79.0943C0.887448 79.742 0.826077 80.4031 0.84063 81.0648C0.822134 82.1497 0.805693 83.2469 1.02765 84.3092C1.24961 85.3715 1.73668 86.4153 2.57108 87.1118C3.34588 87.759 4.34674 88.057 5.32705 88.3035C5.83262 88.4289 6.3793 88.546 6.8602 88.3467C7.21211 88.169 7.51756 87.9114 7.75215 87.5947L10.2533 84.7181C11.9262 82.7866 13.6649 80.8141 15.9605 79.684C16.6798 79.3326 17.4381 79.0676 18.1595 78.7265C21.2176 77.2533 23.3796 74.237 24.2181 70.9494C24.4236 70.146 24.5552 69.3262 24.6888 68.5063L25.0505 66.2585C25.0782 66.1458 25.0782 66.028 25.0505 65.9153C24.9938 65.7886 24.9027 65.6804 24.7874 65.603C23.0453 64.1964 21.4141 62.6577 19.9084 61.0005C19.5508 60.606 19.2159 60.0656 18.8028 59.7348C18.2849 59.3238 18.3239 59.3546 17.7012 59.7348C16.7433 60.3411 15.8674 61.0683 15.0952 61.8984Z" fill="black"/>
<path d="M85.945 85.0427C85.9244 86.3536 85.873 87.7036 85.3284 88.8994C85.0941 89.4172 84.7304 89.9268 84.1857 90.0973C83.8561 90.1735 83.515 90.186 83.1808 90.1343C79.1487 89.78 75.0858 90.1023 71.1601 91.0877C72.2082 88.9919 71.6061 86.479 71.8958 84.153C71.976 83.5181 72.1219 82.8935 72.1774 82.2565C72.3829 79.9964 71.4149 77.8019 70.971 75.5705C70.5857 73.6389 70.5857 71.6502 70.971 69.7187C71.0466 69.2214 71.2176 68.7435 71.4745 68.3112C71.7756 67.8905 72.1712 67.5463 72.6295 67.3064C74.2942 66.3592 76.2569 66.2503 78.1271 66.3756C79.3869 66.4599 81.9127 66.3407 82.9629 67.1153C84.1117 67.9639 84.4755 70.8138 84.7858 72.1309C85.2505 74.1509 85.5665 76.2022 85.7312 78.2683C85.9326 80.5203 85.9758 82.7826 85.945 85.0427Z" fill="#A1616A"/>
<path d="M12.327 89.5918L19.7256 94.5231L53.0192 93.2903L31.029 89.5918H12.327Z" fill="white"/>
<path d="M22.0828 50.4103C20.8682 51.4808 19.8385 52.7424 18.6876 53.8828C17.1093 55.4485 15.3151 56.78 13.5292 58.1053C14.1695 58.2842 14.7524 58.6263 15.2207 59.0982C15.6891 59.57 16.0268 60.1554 16.2009 60.7969C16.279 61.099 16.318 61.4134 16.4064 61.7092C16.6119 62.4099 17.0641 63.014 17.5491 63.5585C19.633 65.907 22.5493 67.6453 23.7783 70.5445C23.8184 70.6856 23.9054 70.8088 24.0249 70.8938C24.1249 70.9381 24.236 70.951 24.3434 70.9308C25.4553 70.8137 26.3061 69.9178 27.0152 69.0466C28.4949 67.1974 29.7793 65.155 30.5089 62.8989C31.2385 60.6428 31.3557 58.1484 30.5603 55.9129C30.1637 54.7992 29.5512 53.776 28.9429 52.763C28.4099 51.8767 27.8783 50.9918 27.3481 50.1083C27.0706 49.6419 26.7172 48.6946 26.1725 48.4645C24.997 47.9591 22.837 49.6563 22.0828 50.4103Z" fill="#F9CF5A"/>
<path d="M82.6156 63.6901L84.3645 67.7995C82.4606 67.1344 80.4257 66.9319 78.428 67.2088C76.4304 67.4857 74.5273 68.234 72.8762 69.3919C71.8794 70.1049 70.9649 71.0008 70.5148 72.1391C70.2926 72.1813 70.0631 72.1599 69.8526 72.0774C69.642 71.9949 69.4591 71.8546 69.3249 71.6726C69.0618 71.3037 68.9092 70.8676 68.885 70.4152C68.7227 68.8371 69.3207 67.2899 69.9126 65.8146C70.188 65.1243 70.4716 64.4195 70.9608 63.8586C71.4499 63.2976 72.0993 62.9278 72.7488 62.5785C74.8206 61.4329 76.9906 60.4743 79.2328 59.7142C80.1782 59.408 81.1687 59.4142 81.699 60.2977C82.3135 61.3518 82.1347 62.5682 82.6156 63.6901Z" fill="#F9CF5A"/>
<path d="M12.37 76.0206C12.8078 76.3699 13.1921 76.7829 13.6422 77.1158C14.1182 77.4462 14.6247 77.7304 15.1548 77.9644L17.1812 78.9383C17.8091 79.2646 18.4662 79.5315 19.1439 79.7355C20.0111 79.9677 20.9216 79.9903 21.793 80.2061C22.8925 80.4773 23.8975 81.0423 24.9805 81.3691C26.0636 81.6958 27.3316 81.7492 28.2359 81.0691C28.8011 80.6437 29.2286 79.941 29.9294 79.8362C30.3815 79.7766 30.8172 79.9944 31.22 80.2061L36.4936 82.9779C37.2046 83.3519 37.9568 83.7669 38.3288 84.4799C38.7008 85.1929 38.4501 86.2757 37.6671 86.4606C37.3942 86.492 37.1197 86.5078 36.845 86.5079C36.5737 86.5408 36.2778 86.701 36.2408 86.9743C36.2394 87.144 36.2841 87.3109 36.3702 87.4572C36.6066 87.9996 36.6765 88.6489 36.4011 89.1749C36.1257 89.7009 35.4495 90.0276 34.909 89.7913C35.0015 90.5865 34.1363 91.1433 33.3656 91.355C31.4214 91.8872 29.3601 91.5604 27.3727 91.2235C26.5918 91.092 25.7985 90.9564 25.0874 90.6071C24.7462 90.4406 24.4297 90.2269 24.0845 90.0728C23.137 89.6516 22.0601 89.7071 21.0243 89.7256C16.2338 89.8098 11.4843 88.9222 6.77383 88.0387C5.90039 87.8743 5.00228 87.6996 4.25626 87.2168C2.81764 86.2798 2.2833 84.3566 2.51965 82.6553C2.75599 80.954 3.61916 79.413 4.46794 77.9171L5.56745 75.9795C5.71119 75.6827 5.91236 75.4173 6.15934 75.1987C7.77676 73.9638 10.9849 74.907 12.37 76.0206Z" fill="#A1616A"/>
<path opacity="0.04" d="M12.37 76.0206C12.8078 76.3699 13.1921 76.7829 13.6422 77.1158C14.1182 77.4462 14.6247 77.7304 15.1548 77.9644L17.1812 78.9383C17.8091 79.2646 18.4662 79.5315 19.1439 79.7355C20.0111 79.9677 20.9216 79.9903 21.793 80.2061C22.8925 80.4773 23.8975 81.0423 24.9805 81.3691C26.0636 81.6958 27.3316 81.7492 28.2359 81.0691C28.8011 80.6437 29.2286 79.941 29.9294 79.8362C30.3815 79.7766 30.8172 79.9944 31.22 80.2061L36.4936 82.9779C37.2046 83.3519 37.9568 83.7669 38.3288 84.4799C38.7008 85.1929 38.4501 86.2757 37.6671 86.4606C37.3942 86.492 37.1197 86.5078 36.845 86.5079C36.5737 86.5408 36.2778 86.701 36.2408 86.9743C36.2394 87.144 36.2841 87.3109 36.3702 87.4572C36.6066 87.9996 36.6765 88.6489 36.4011 89.1749C36.1257 89.7009 35.4495 90.0276 34.909 89.7913C35.0015 90.5865 34.1363 91.1433 33.3656 91.355C31.4214 91.8872 29.3601 91.5604 27.3727 91.2235C26.5918 91.092 25.7985 90.9564 25.0874 90.6071C24.7462 90.4406 24.4297 90.2269 24.0845 90.0728C23.137 89.6516 22.0601 89.7071 21.0243 89.7256C16.2338 89.8098 11.4843 88.9222 6.77383 88.0387C5.90039 87.8743 5.00228 87.6996 4.25626 87.2168C2.81764 86.2798 2.2833 84.3566 2.51965 82.6553C2.75599 80.954 3.61916 79.413 4.46794 77.9171L5.56745 75.9795C5.71119 75.6827 5.91236 75.4173 6.15934 75.1987C7.77676 73.9638 10.9849 74.907 12.37 76.0206Z" fill="black"/>
<path d="M75.1061 79.571C74.0353 80.0765 72.8063 80.1258 71.6883 80.5141C70.5703 80.9025 69.6208 81.6011 68.5953 82.1702C65.9236 83.6619 62.8408 84.2249 59.8136 84.7612C57.9783 85.09 56.1143 85.4187 54.2646 85.3406C51.7614 85.2338 49.3569 84.3996 46.9318 83.7708C44.5067 83.1421 41.9193 82.7188 39.5168 83.4257C38.2622 83.8076 37.1153 84.4797 36.1691 85.3875C35.2229 86.2953 34.5039 87.4133 34.0706 88.6508C33.5671 90.1281 33.4972 91.7205 33.5938 93.278C34.0994 93.6499 34.8063 93.1342 35.0817 92.5691C35.3571 92.0041 35.5072 91.3117 36.0415 90.9829C36.9684 91.2973 37.1944 92.5322 37.959 93.1424C38.4358 93.5246 39.0729 93.6253 39.6791 93.7116L42.803 94.1554C43.5552 94.2622 44.4286 94.3341 44.9732 93.804C45.2384 93.5472 45.3843 93.1876 45.6268 92.9123C46.1241 92.3616 46.9544 92.2671 47.6943 92.3411C50.0043 92.5712 52.1704 94.0691 54.464 93.7136C55.2532 93.5924 55.9869 93.2554 56.739 92.9904C61.1967 91.4164 66.1496 92.3739 70.7882 91.4719C72.5576 91.1288 74.2614 90.5206 75.9446 89.8795C76.8591 89.5323 77.7839 89.1686 78.5649 88.5809C79.3048 88.0122 79.8882 87.265 80.2606 86.4094C80.633 85.5537 80.7821 84.6176 80.694 83.6887C80.522 82.2729 79.8155 80.9764 78.719 80.0641C78.3573 79.7559 77.8826 79.1662 77.4489 78.9731C76.6207 78.6094 75.8089 79.2402 75.1061 79.571Z" fill="#A1616A"/>
<g opacity="0.1">
<path opacity="0.1" d="M69.1009 53.3218C68.7577 53.0177 68.6734 52.5554 68.3775 52.2184C67.7609 51.5054 66.5155 51.602 65.5002 51.7458C63.7307 51.9945 61.5954 52.052 60.498 50.8212C60.0232 50.2911 59.8136 49.5884 59.234 49.1466C57.8817 48.1193 55.5553 49.1713 54.0653 48.3021C52.7644 47.544 52.8486 45.7851 51.7635 44.8091C50.6784 43.8331 48.7979 43.9605 47.3244 44.4475C47.075 44.562 46.7956 44.5937 46.5269 44.5379C46.0604 44.3735 46.0933 43.7941 46.2084 43.3667C46.7695 41.3017 47.3408 39.2162 48.4321 37.3176C48.8287 36.6252 49.2973 35.9574 49.5521 35.2136C49.9981 33.9109 49.77 32.4377 50.3557 31.2048C49.7268 31.6158 49.1226 32.0637 48.7342 32.6431C47.8587 33.9479 48.1978 35.6081 47.7066 37.0567C47.4518 37.8005 46.9832 38.4683 46.5865 39.1607C45.4953 41.0593 44.9239 43.1448 44.3629 45.2098C44.2478 45.6372 44.2149 46.2166 44.6814 46.381C44.95 46.4368 45.2295 46.4051 45.4788 46.2906C46.9524 45.8036 48.8246 45.6639 49.918 46.6522C51.0113 47.6405 50.9188 49.3932 52.2198 50.1452C53.7097 51.0144 56.0362 49.9644 57.3885 50.9897C57.968 51.4294 58.1777 52.1342 58.6524 52.6643C59.7581 53.8971 61.8852 53.8375 63.6547 53.5889C64.6699 53.4451 65.9154 53.3485 66.5319 54.0615C66.8279 54.3985 66.9121 54.8608 67.2553 55.1649C67.8719 55.7156 69.0002 55.4361 69.6023 54.8711C69.9884 54.4691 70.3188 54.0171 70.5847 53.5273C70.0504 53.6896 69.4811 53.665 69.1009 53.3218Z" fill="black"/>
<path opacity="0.1" d="M72.8454 51.0617C72.713 51.2322 72.5902 51.4098 72.4775 51.5939C73.2667 51.0309 74.1032 50.5049 74.693 49.7878C74.8461 49.6022 74.9836 49.4043 75.104 49.196C74.284 49.7837 73.4291 50.3241 72.8454 51.0617Z" fill="black"/>
</g>
<path d="M114.366 91.7493L114.982 150.72L117.86 150.309L117.243 91.7493H114.366Z" fill="#3F3D56"/>
<path d="M131.629 102.434L132.246 161.404L135.123 160.993L134.506 102.434H131.629Z" fill="#3F3D56"/>
<path d="M185.378 132.223L185.366 131.091V130.417L185.257 120.045L185.086 103.829L185.057 102.43H182.18L182.194 103.778L182.285 112.463L182.324 116.223L182.357 119.268L182.41 124.532L182.443 127.637V127.966L182.486 132.046L182.523 135.644L182.758 135.385C183.134 134.965 183.503 134.537 183.863 134.103L185.378 132.223Z" fill="#3F3D56"/>
<path d="M128.444 111.988L126.799 114.446L128.444 125.642L142.419 129.466H165.026L178.59 130.286L185.051 125.864L183.933 118.27L179.001 111.988H128.444Z" fill="#F9CF5A"/>
<path d="M126.8 114.446L125.978 121.272C125.978 121.272 121.662 134.654 156.394 133.834C191.126 133.014 185.166 130.284 185.166 130.284L184.961 122.365C184.961 122.365 186.171 126.113 168.519 125.605C150.868 125.097 134.404 123.458 134.404 123.458C134.404 123.458 128.238 124.549 126.8 114.446Z" fill="#3F3D56"/>
<path d="M155.736 53.2645C153.755 54.1666 152.255 55.9151 151.25 57.8486C150.245 59.7821 149.68 61.9046 149.123 64.0128C148.535 66.236 147.945 68.4654 147.641 70.744C147.098 74.7959 147.505 79.0554 149.367 82.6943C151.229 86.3332 154.67 89.2694 158.698 89.97C160.254 90.2433 161.852 90.1878 163.425 90.0255C166.266 89.7247 169.066 89.1078 171.771 88.1865C174.596 87.2311 177.537 85.7599 178.795 83.0497C179.525 81.4779 179.586 79.6862 179.552 77.9561C179.455 73.2407 178.742 68.5582 177.433 64.0272C177.052 62.7121 176.611 61.3868 175.805 60.2793C174.999 59.1719 173.898 58.3602 172.774 57.6082C167.967 54.372 161.649 50.577 155.736 53.2645Z" fill="#FBBEBE"/>
<path opacity="0.05" d="M155.736 53.2645C153.755 54.1666 152.255 55.9151 151.25 57.8486C150.245 59.7821 149.68 61.9046 149.123 64.0128C148.535 66.236 147.945 68.4654 147.641 70.744C147.098 74.7959 147.505 79.0554 149.367 82.6943C151.229 86.3332 154.67 89.2694 158.698 89.97C160.254 90.2433 161.852 90.1878 163.425 90.0255C166.266 89.7247 169.066 89.1078 171.771 88.1865C174.596 87.2311 177.537 85.7599 178.795 83.0497C179.525 81.4779 179.586 79.6862 179.552 77.9561C179.455 73.2407 178.742 68.5582 177.433 64.0272C177.052 62.7121 176.611 61.3868 175.805 60.2793C174.999 59.1719 173.898 58.3602 172.774 57.6082C167.967 54.372 161.649 50.577 155.736 53.2645Z" fill="black"/>
<path d="M153.511 79.1271C154.084 79.9152 154.777 80.6085 155.566 81.1818C157.522 82.5338 160.034 82.7167 162.409 82.7907C164.317 82.8482 166.503 82.7393 167.699 81.2517C168.238 80.5819 168.48 79.7271 168.698 78.8949C170.043 73.785 170.998 68.5806 171.555 63.3263L176.997 63.3448C179.352 73.4273 179.159 83.9084 178.953 94.2622L178.655 109.36L175.149 108.988C166.824 108.107 158.486 107.225 150.115 107.073C145.211 106.983 140.305 107.145 135.417 107.558L143.052 84.8618C144.042 81.9113 145.043 78.9216 145.275 75.8211C145.61 71.3233 144.349 66.5748 146.098 62.414C146.237 62.0791 146.414 61.7319 146.733 61.5572C147.051 61.3826 147.454 61.4257 147.82 61.473C148.51 61.5654 150.621 61.473 151.122 61.9147C151.862 62.5558 151.373 62.6524 151.112 63.6859C150.646 65.5352 150.204 67.2467 150.21 69.1741C150.216 72.6732 151.301 76.3676 153.511 79.1271Z" fill="#F9CF5A"/>
<path d="M185.378 132.223C186.294 131.007 187.158 129.747 187.969 128.445C187.558 127.565 187.106 126.706 186.747 125.808C186.196 124.432 185.879 122.973 185.567 121.524C185.46 121.031 185.354 120.538 185.248 120.045C184.097 114.68 183.016 109.239 182.792 103.8C182.772 103.348 182.759 102.896 182.753 102.444C182.753 102.378 182.753 102.315 182.753 102.239C182.753 101.744 182.753 101.248 182.753 100.755C182.778 99.5224 182.856 98.2793 182.998 97.0424C183.025 96.7999 183.056 96.5574 183.088 96.315C183.088 96.2616 183.101 96.2102 183.109 96.1568L197.084 95.6472L198.26 95.604C199.067 95.5753 199.922 95.5301 200.588 95.0719C201.708 94.3034 201.84 92.7274 201.821 91.3734C201.753 87.951 201.365 84.5424 200.662 81.1923C200.132 78.6732 199.376 76.0986 197.678 74.1631C196.285 72.5727 194.266 71.4159 193.541 69.4372C193.272 68.7016 193.204 67.8941 192.855 67.1914C192.505 66.4887 191.928 65.973 191.383 65.4305C189.466 63.5316 187.876 61.3295 186.677 58.913C185.844 57.2363 184.942 55.3871 183.855 54.2282C183.802 54.1686 183.748 54.1131 183.693 54.0597C182.768 53.1454 181.709 52.7447 180.456 53.3673C180.23 53.4804 180.016 53.6138 179.815 53.7659C179.368 54.1072 178.959 54.4957 178.596 54.9247C177.329 56.3805 176.218 57.9643 175.281 59.6506C174.622 60.8378 174.055 62.0743 173.587 63.3491C173.218 64.3562 172.913 65.3856 172.673 66.4312C172.496 67.2058 172.356 67.9886 172.245 68.7735C171.834 71.7241 171.834 74.7322 171.892 77.7198C171.954 80.4649 172.075 83.2161 172.323 85.951C172.385 86.6126 172.454 87.2735 172.529 87.9338C172.68 89.2392 172.866 90.5405 173.088 91.8377C173.176 92.3329 173.267 92.8281 173.367 93.3213C173.392 93.4528 173.419 93.5843 173.446 93.7137L173.458 93.7692C173.729 94.9154 173.94 96.0752 174.089 97.2437C174.105 97.3903 174.118 97.5362 174.126 97.6814C174.16 98.353 174.155 99.0261 174.109 99.697C174.062 100.49 173.988 101.281 173.951 102.074C173.951 102.214 173.951 102.352 173.937 102.485C173.926 102.886 173.937 103.287 173.937 103.687C173.978 104.646 174.092 105.6 174.278 106.541C174.625 108.292 175.223 109.984 176.056 111.563C176.134 111.711 176.214 111.857 176.294 112.001C177.336 113.862 178.651 115.57 179.615 117.474C180.447 119.188 181.068 120.997 181.465 122.86C181.602 123.475 181.732 124.091 181.855 124.709C182.046 125.695 182.217 126.69 182.392 127.684C182.408 127.783 182.427 127.89 182.445 127.98C182.677 129.299 182.922 130.612 183.236 131.901C183.419 132.651 183.625 133.39 183.865 134.118L185.378 132.223Z" fill="#464353"/>
<path d="M182.632 116.028C182.632 116.213 182.62 116.398 182.612 116.585C182.575 117.486 182.492 118.385 182.363 119.278C182.193 120.497 181.894 121.695 181.473 122.851C181.194 123.612 180.838 124.342 180.413 125.032C180.035 125.643 179.593 126.213 179.093 126.731C177.86 128.013 176.084 128.422 174.366 128.962C173.576 129.191 172.812 129.503 172.087 129.893C171.958 129.965 171.83 130.043 171.707 130.125L169.557 131.549C168.887 131.991 168.203 132.449 167.743 133.105C167.667 133.216 167.598 133.332 167.537 133.452C167.246 134.055 167.033 134.693 166.904 135.35C165.786 140.006 164.666 144.666 163.899 149.392C163.848 149.705 163.799 150.019 163.745 150.333L163.727 150.432C163.717 150.409 163.706 150.386 163.694 150.364C158.194 153.689 152.491 156.689 146.615 159.091L145.339 148.406C145.206 147.537 145.162 146.658 145.208 145.78C145.329 144.397 145.892 143.086 146.044 141.708C146.188 140.358 145.933 138.996 145.31 137.789C145.068 137.321 144.764 136.861 144.708 136.337C144.653 135.813 144.955 135.334 145.481 135.28C145.892 134.824 145.925 134.202 145.804 133.585C145.739 133.264 145.643 132.949 145.516 132.646C145.167 131.787 144.725 130.853 145.025 129.975C145.104 129.816 145.14 129.639 145.127 129.461C145.13 129.451 145.13 129.439 145.127 129.429C145.058 129.198 144.784 129.098 144.642 128.903C144.375 128.539 144.642 128.044 144.807 127.625C144.967 127.174 145.06 126.703 145.082 126.225C145.105 125.96 145.121 125.693 145.15 125.43C145.19 125.074 145.254 124.721 145.341 124.374C145.84 122.406 147.041 120.687 148.718 119.541C149.517 119.003 150.407 118.611 151.223 118.103C152.059 117.54 152.857 116.922 153.611 116.254C155.421 114.747 157.303 113.326 159.257 111.992C161.358 110.558 163.534 109.237 165.776 108.035C166.255 107.776 166.735 107.524 167.214 107.279C167.736 107.005 168.262 106.745 168.791 106.5C170.484 105.693 172.406 105.995 174.278 106.533C175.063 106.757 175.838 107.024 176.586 107.266C177.316 107.504 178.019 107.819 178.682 108.207C180.341 109.181 181.711 110.62 182.281 112.436C182.282 112.448 182.282 112.459 182.281 112.471C182.642 113.609 182.665 114.83 182.632 116.028Z" fill="#F86D70"/>
<path opacity="0.1" d="M182.632 116.028C182.632 116.213 182.62 116.398 182.612 116.585C182.575 117.486 182.492 118.385 182.363 119.278C182.193 120.497 181.894 121.695 181.473 122.851C181.194 123.612 180.838 124.342 180.413 125.032C180.035 125.643 179.593 126.213 179.093 126.731C177.86 128.013 176.084 128.422 174.366 128.962C173.576 129.191 172.812 129.503 172.087 129.893C171.958 129.965 171.83 130.043 171.707 130.125L169.557 131.549C168.887 131.991 168.203 132.449 167.743 133.105C167.667 133.216 167.598 133.332 167.537 133.452C167.246 134.055 167.033 134.693 166.904 135.35C165.786 140.006 164.666 144.666 163.899 149.392C163.848 149.705 163.799 150.019 163.745 150.333L163.727 150.432C163.717 150.409 163.706 150.386 163.694 150.364C158.194 153.689 152.491 156.689 146.615 159.091L145.339 148.406C145.206 147.537 145.162 146.658 145.208 145.78C145.329 144.397 145.892 143.086 146.044 141.708C146.188 140.358 145.933 138.996 145.31 137.789C145.068 137.321 144.764 136.861 144.708 136.337C144.653 135.813 144.955 135.334 145.481 135.28C145.892 134.824 145.925 134.202 145.804 133.585C145.739 133.264 145.643 132.949 145.516 132.646C145.167 131.787 144.725 130.853 145.025 129.975C145.104 129.816 145.14 129.639 145.127 129.461C145.13 129.451 145.13 129.439 145.127 129.429C145.058 129.198 144.784 129.098 144.642 128.903C144.375 128.539 144.642 128.044 144.807 127.625C144.967 127.174 145.06 126.703 145.082 126.225C145.105 125.96 145.121 125.693 145.15 125.43C145.19 125.074 145.254 124.721 145.341 124.374C145.84 122.406 147.041 120.687 148.718 119.541C149.517 119.003 150.407 118.611 151.223 118.103C152.059 117.54 152.857 116.922 153.611 116.254C155.421 114.747 157.303 113.326 159.257 111.992C161.358 110.558 163.534 109.237 165.776 108.035C166.255 107.776 166.735 107.524 167.214 107.279C167.736 107.005 168.262 106.745 168.791 106.5C170.484 105.693 172.406 105.995 174.278 106.533C175.063 106.757 175.838 107.024 176.586 107.266C177.316 107.504 178.019 107.819 178.682 108.207C180.341 109.181 181.711 110.62 182.281 112.436C182.282 112.448 182.282 112.459 182.281 112.471C182.642 113.609 182.665 114.83 182.632 116.028Z" fill="black"/>
<path d="M163.118 81.9935C163.098 81.9457 163.067 81.9027 163.03 81.867C162.992 81.8312 162.947 81.8035 162.898 81.7854C162.849 81.7674 162.797 81.7594 162.745 81.7619C162.693 81.7645 162.642 81.7775 162.596 81.8002C162.549 81.8229 162.507 81.8549 162.473 81.8942C162.439 81.9334 162.413 81.9792 162.397 82.0287C162.381 82.0783 162.375 82.1305 162.379 82.1824C162.384 82.2342 162.399 82.2846 162.424 82.3304L162.218 82.4311L168.347 94.9896L169.455 94.4492L163.326 81.8825L163.118 81.9935Z" fill="#3F3D56"/>
<path d="M170.78 68.8392C178.044 68.8392 183.933 62.9517 183.933 55.689C183.933 48.4264 178.044 42.5388 170.78 42.5388C163.516 42.5388 157.627 48.4264 157.627 55.689C157.627 62.9517 163.516 68.8392 170.78 68.8392Z" fill="#FBBEBE"/>
<path d="M188.14 47.5481C188.078 46.5027 187.923 45.465 187.676 44.4475C186.903 41.125 185.491 37.8539 183.06 35.4684C182.91 34.8851 182.731 34.3098 182.523 33.7445C182.519 33.7305 182.515 33.7168 182.509 33.7034C181.784 31.7119 180.735 29.8536 179.406 28.2029C178.635 27.2454 177.636 26.3002 176.407 26.2633C176.062 26.2509 175.696 26.3105 175.38 26.1523C175.147 26.0018 174.951 25.801 174.806 25.5647C174.198 24.7957 173.39 24.2077 172.472 23.864C171.553 23.5204 170.558 23.4342 169.594 23.6147L169.467 23.6414C169.395 23.6558 169.323 23.6723 169.261 23.6908C169.2 23.7092 169.089 23.7401 169.002 23.7668C169.097 23.9229 169.189 24.0811 169.28 24.2414C169.524 24.6756 169.75 25.1195 169.958 25.5729C170.131 25.9509 170.29 26.3352 170.437 26.7256C168.332 26.966 166.618 28.4598 165.052 29.8816L161.365 33.2267C161.359 33.2323 161.352 33.2385 161.347 33.2452L161.24 33.3479C161.213 33.3746 161.187 33.4014 161.162 33.4301C161.152 33.4387 161.143 33.4483 161.135 33.4589C161.104 33.4918 161.076 33.5267 161.047 33.5616C160.995 33.6263 160.949 33.695 160.909 33.7671C160.889 33.7979 160.871 33.8302 160.856 33.8637C160.85 33.8735 160.845 33.8838 160.841 33.8945C160.828 33.9225 160.816 33.9513 160.806 33.9808C160.805 33.9848 160.805 33.989 160.806 33.9931C160.801 34.0099 160.796 34.0271 160.792 34.0445C160.75 34.1891 160.762 34.344 160.827 34.4801L163.258 34.5068H163.544C163.556 34.8314 163.566 35.1581 163.579 35.4828C163.193 35.7715 162.823 36.0801 162.469 36.4074C162.083 36.7642 161.722 37.1458 161.386 37.5498C159.193 40.1984 158.048 43.6195 157.933 47.0632C157.933 47.17 157.933 47.2686 157.933 47.3796C157.933 47.694 157.933 48.0083 157.933 48.3207C157.933 48.5261 157.952 48.7316 157.968 48.9371C157.969 49.2047 158.04 49.4675 158.174 49.6994C158.191 49.7253 158.21 49.75 158.231 49.7733C158.355 49.9072 158.502 50.016 158.667 50.0939L158.844 50.1802C158.932 50.2233 159.016 50.2644 159.099 50.3117C159.873 50.7493 160.332 51.5938 161.037 52.1363C161.078 52.1671 161.119 52.1979 161.16 52.2246L161.252 52.2863L161.31 52.3233L161.388 52.3685C161.439 52.3993 161.492 52.4275 161.546 52.4527L161.645 52.502H161.661C161.743 52.539 161.826 52.5739 161.91 52.6047L162.027 52.6458L162.062 52.6582C162.095 52.6684 162.13 52.6808 162.165 52.689C162.235 52.7095 162.303 52.728 162.37 52.7445L162.576 52.7897C162.656 52.8041 162.738 52.8184 162.82 52.8287L162.942 52.8451L163.065 52.8575C163.261 52.8753 163.458 52.8856 163.657 52.8883C164.28 52.8845 164.903 52.8412 165.521 52.7589L170.766 52.1424C171.956 52.0048 173.17 51.8671 174.344 52.1096C175.338 52.315 176.255 52.7876 177.221 53.1225C177.439 53.1986 177.657 53.2684 177.877 53.328C177.957 53.3506 178.039 53.3753 178.121 53.3958L178.234 53.4246L178.497 53.4883C178.592 53.5109 178.686 53.5335 178.781 53.552C178.914 53.5807 179.046 53.6054 179.18 53.6301C179.27 53.6485 179.362 53.6629 179.455 53.6794H179.473L179.736 53.7205H179.8L179.995 53.7472C180.09 53.7616 180.184 53.7739 180.281 53.7842C180.491 53.8102 180.7 53.8328 180.91 53.852C181.249 53.8848 181.59 53.9095 181.938 53.93L182.279 53.9506L182.62 53.967L183.647 54.0122H183.693H183.837C184.264 54.042 184.693 54.0199 185.115 53.9465C185.189 53.9321 185.261 53.9157 185.333 53.8951C185.405 53.8746 185.464 53.854 185.538 53.8294C186.309 53.5335 186.872 52.8534 187.262 52.126C187.345 51.9719 187.421 51.8178 187.491 51.6596C187.56 51.5014 187.624 51.3411 187.682 51.1808C187.754 50.9754 187.815 50.7802 187.869 50.5747C187.885 50.5192 187.9 50.4637 187.912 50.4062C187.924 50.3487 187.953 50.2357 187.969 50.1494C188.021 49.9131 188.06 49.6747 188.089 49.4343C188.089 49.3583 188.107 49.2802 188.115 49.2042C188.134 48.9987 188.148 48.8076 188.156 48.6063C188.156 48.4542 188.156 48.3001 188.156 48.146C188.154 47.9796 188.14 47.7597 188.14 47.5481ZM182.871 35.2814C182.704 35.1253 182.534 34.9753 182.361 34.8335C182.553 34.9547 182.724 35.1059 182.869 35.2814H182.871Z" fill="#464353"/>
<path d="M145.537 54.9658C143.989 54.7747 142.454 54.0967 140.927 54.4295C139.971 54.635 139.149 55.2288 138.385 55.8391C135.539 58.1189 133.12 60.884 131.239 64.0066C130.92 64.4734 130.696 64.9984 130.579 65.5517C130.48 66.1928 130.655 66.8441 130.863 67.4585C132.268 71.6111 135.275 75.0794 136.644 79.2443C138.082 83.625 137.583 88.4125 136.523 92.9C135.208 98.4399 133.072 103.752 130.184 108.66C129.792 109.389 129.301 110.062 128.725 110.657C127.977 111.376 126.972 111.89 126.528 112.831C126.323 113.242 126.263 113.71 126.117 114.15C125.706 115.383 124.712 116.439 124.615 117.739C124.543 118.732 125.014 119.671 125.299 120.616C125.781 122.24 125.73 123.975 125.153 125.568C124.111 128.424 121.386 131.021 122.178 133.957C123.943 133.45 125.899 132.79 126.732 131.153C127.026 130.573 127.172 129.883 127.667 129.46C128.655 128.619 130.339 129.379 131.389 128.607C132.182 128.019 132.211 126.815 131.857 125.891C131.504 124.966 130.896 124.152 130.624 123.201C130.152 121.485 130.908 119.671 130.768 117.898C130.702 117.076 130.45 116.289 130.431 115.471C130.396 113.883 131.276 112.389 132.445 111.31C133.615 110.232 135.059 109.516 136.481 108.812L141.858 106.141C143.808 105.175 145.945 103.998 146.585 101.918C146.827 101.139 146.829 100.309 146.842 99.4956C147.024 87.0625 150.14 74.8801 153.237 62.8374C153.718 60.9717 154.207 59.0978 154.922 57.3061C155.638 55.5144 157.037 54.0761 157.75 52.4118C153.613 51.9269 149.834 55.5041 145.537 54.9658Z" fill="#464353"/>
<path d="M175.174 132.965C175.649 135.842 175.939 138.78 176.165 141.704C172.465 144.769 168.482 147.436 164.436 149.91C164.206 150.052 163.973 150.192 163.741 150.321L163.723 150.42C163.713 150.396 163.702 150.374 163.69 150.352C163.376 149.674 162.827 149.132 162.144 148.827C160.628 145.643 159.112 142.458 157.598 139.273C156.776 137.553 155.954 135.817 155.543 133.961C155.543 133.922 155.525 133.881 155.518 133.842C155.206 132.404 155.134 130.91 154.927 129.453C154.821 128.619 154.633 127.797 154.366 127C154.119 126.291 153.78 125.603 153.48 124.91C153.11 124.056 152.799 123.191 152.785 122.268C152.785 121.974 152.804 121.652 152.66 121.405C152.506 121.193 152.316 121.009 152.099 120.863C151.827 120.622 151.622 120.317 151.501 119.975C151.38 119.633 151.348 119.266 151.408 118.909C150.175 118.972 149.48 120.298 148.985 121.421C148.535 122.521 147.943 123.557 147.226 124.504C146.703 125.18 146.038 125.733 145.278 126.125C145.21 126.158 145.142 126.191 145.072 126.219C143.356 126.975 141.352 126.708 139.492 126.367C137.867 126.069 136.186 125.699 134.878 124.689L134.739 124.578C134.352 124.256 134.007 123.887 133.711 123.48C132.616 121.984 132.131 120.014 131.861 118.138C131.837 117.961 131.812 117.785 131.79 117.608C131.603 116.282 131.551 114.941 131.635 113.605C131.66 113.277 131.695 112.948 131.738 112.621C131.767 112.416 131.798 112.194 131.833 111.98C131.832 111.974 131.832 111.968 131.833 111.962C131.886 111.623 131.944 111.281 132.001 110.934C132.207 109.769 132.412 108.573 133.029 107.571C133.435 106.947 133.946 106.399 134.541 105.952C134.763 105.777 134.991 105.61 135.222 105.45C135.596 105.191 135.98 104.945 136.37 104.713C137.353 104.125 138.384 103.623 139.453 103.213C139.708 103.114 139.967 103.022 140.226 102.933C141.233 102.575 142.316 102.489 143.366 102.685C144.297 102.819 145.238 102.874 146.178 102.849C148.588 102.802 151.009 102.341 153.416 102.043C156.758 101.633 160.348 101.583 163.262 103.276C163.402 103.356 163.538 103.441 163.673 103.529C165.112 104.47 166.271 105.789 167.206 107.262C167.412 107.573 167.591 107.891 167.767 108.214C168.175 108.954 168.543 109.716 168.871 110.495C169.065 110.877 169.17 111.299 169.177 111.727C169.172 111.809 169.161 111.89 169.144 111.97C169.089 112.262 168.978 112.545 168.939 112.841C168.809 113.961 169.761 114.896 170.116 115.962C170.346 116.657 170.322 117.4 170.451 118.132C170.638 119.159 171.142 120.084 171.594 121.008C172.308 122.497 172.92 124.033 173.423 125.605C173.781 126.7 174.087 127.812 174.356 128.934C174.444 129.294 174.527 129.655 174.605 130.016C174.829 131.011 175.012 131.985 175.174 132.965Z" fill="#F86D70"/>
<path d="M197.086 102.537V103.975L196.821 103.971L196.525 103.967L193.22 103.926L185.078 103.819L182.793 103.79L182.201 103.782L178.771 103.739L173.937 103.675L163.682 103.541L145.886 103.311L139.464 103.229L136.886 103.196L134.515 103.165L133.037 103.145L131.637 103.126L121.261 102.993L118.384 102.956L117.757 102.948L117.35 101.898L114.393 94.2725L113.852 92.8794L114.263 91.2356L116.113 92.4684L117.251 92.6102L135.996 94.9403L139.515 95.3779L146.975 96.3066L154.283 97.2148L157.148 97.5703L174.101 99.6784L178.838 100.268L182.76 100.755L196.702 102.489L197.086 102.537Z" fill="#3F3D56"/>
<path d="M114.263 91.2356L117.962 100.893L197.086 102.537V92.0575L114.263 91.2356Z" fill="#504F60"/>
<path d="M118.373 101.92L118.99 160.891L121.867 160.48L121.251 101.92H118.373Z" fill="#3F3D56"/>
<path d="M196.821 103.969H196.525C196.046 107.645 195.253 111.274 194.156 114.816L193.22 103.926L193.181 103.461L196.638 103.063L196.753 103.05L196.821 103.969Z" fill="#3F3D56"/>
<path d="M185.577 96.9889L155.469 97.6053L146.118 94.5233L171.191 93.085L185.577 96.9889Z" fill="white"/>
<path d="M147.81 85.0057C147.49 85.1281 147.207 85.3296 146.987 85.5913C146.815 85.8748 146.711 86.1939 146.681 86.5241L146.176 89.5384C146.099 89.8141 146.112 90.1073 146.215 90.3747C146.346 90.6274 146.729 90.7589 146.92 90.5493C146.895 91.139 146.946 91.7678 147.29 92.2486C147.633 92.7294 148.352 92.9821 148.837 92.6472C148.913 92.7711 149.015 92.877 149.136 92.9575C149.257 93.0381 149.394 93.0913 149.538 93.1136C149.682 93.1359 149.829 93.1267 149.968 93.0866C150.108 93.0465 150.238 92.9765 150.348 92.8814C150.056 92.9801 150.035 93.4259 150.243 93.652C150.475 93.8571 150.772 93.9754 151.081 93.9869C154.693 94.4958 158.375 94.0327 161.748 92.6452C162.066 92.5137 161.228 88.5871 161.143 88.1844C160.938 87.2371 160.835 86.0803 160.036 85.4434C158.124 83.9188 154.729 83.6188 152.401 83.7996C150.81 83.9199 149.254 84.3286 147.81 85.0057Z" fill="#FBBEBE"/>
<path opacity="0.1" d="M178.444 85.462C171.01 85.6038 163.423 85.725 156.328 83.4998C157.006 86.1253 156.959 88.8854 156.193 91.4865L190.949 94.3631C192.423 94.4843 198.533 95.1747 199.97 94.8274C201.406 94.4802 187.916 90.0379 188.461 88.6633C189.959 84.8764 194.978 82.6573 191.363 82.5156C186.8 82.3348 183.041 85.3757 178.444 85.462Z" fill="black"/>
<path d="M178.649 85.8729C171.216 86.0147 163.628 86.1359 156.534 83.9107C157.211 86.5362 157.164 89.2963 156.398 91.8974L191.155 94.774C192.629 94.8952 198.739 95.5959 200.175 95.2384C201.612 94.8808 201.275 93.1199 201.819 91.7453C203.317 87.9585 195.183 83.0682 191.568 82.9265C187.006 82.7456 183.247 85.7866 178.649 85.8729Z" fill="#464353"/>
<path d="M166.83 86.4439C167.149 86.5661 167.432 86.7677 167.652 87.0295C167.824 87.3133 167.929 87.6322 167.96 87.9624L168.466 90.9766C168.542 91.2525 168.528 91.5454 168.427 91.8129C168.295 92.0656 167.911 92.1971 167.722 91.9876C167.745 92.5773 167.695 93.206 167.352 93.6868C167.009 94.1676 166.29 94.4204 165.803 94.0854C165.726 94.2093 165.624 94.3152 165.503 94.3958C165.382 94.4763 165.245 94.5296 165.101 94.5518C164.958 94.5741 164.811 94.5649 164.671 94.5248C164.531 94.4847 164.402 94.4147 164.292 94.3197C164.584 94.4183 164.606 94.8642 164.399 95.0902C164.166 95.2953 163.869 95.4136 163.558 95.4251C159.947 95.9341 156.266 95.4709 152.894 94.0834C152.575 93.9519 153.412 90.0253 153.498 89.6226C153.704 88.6754 153.807 87.5186 154.606 86.8816C156.515 85.357 159.912 85.057 162.241 85.2378C163.831 85.3584 165.386 85.7671 166.83 86.4439Z" fill="#FBBEBE"/>
<path d="M117.712 79.8996C117.029 80.779 116.345 81.677 115.905 82.7023C115.065 84.6584 115.188 86.8733 115.328 88.9979C115.367 89.6143 115.416 90.2431 115.739 90.7547C116.018 91.1412 116.386 91.4548 116.811 91.6691C118.591 92.68 120.675 92.982 122.71 93.208C125.825 93.5532 128.952 93.7635 132.09 93.8388C139.862 94.0279 147.754 93.393 155.325 95.1539C154.388 93.7299 154.39 91.8458 154.914 90.2225C155.438 88.5993 156.447 87.1857 157.436 85.7946C153.971 84.6974 150.255 86.411 146.626 86.2405C142.9 86.0658 139.451 83.9125 135.721 83.9146C134.919 83.9146 134.104 84.0152 133.325 83.8221C132.546 83.6289 131.792 83.0413 131.72 82.242C132.714 82.466 133.658 81.6153 134.069 80.6825C134.48 79.7496 134.554 78.6956 134.952 77.7566C135.945 75.4203 138.627 74.3375 140.296 72.4143C140.559 72.1102 140.808 71.7506 140.799 71.3479C140.76 71.0067 140.617 70.686 140.388 70.4294C139.001 68.5802 136.911 67.5528 135.174 66.1145C134.57 65.6132 133.351 63.7228 132.673 63.5482C131.415 63.2256 130.349 65.042 129.531 65.9275C125.401 70.4137 121.462 75.071 117.712 79.8996Z" fill="#464353"/>
<path opacity="0.07" d="M159.037 79.3779C159.558 79.7642 160.021 80.2229 160.412 80.7402C160.607 81 160.745 81.2974 160.819 81.6136C160.893 81.9298 160.901 82.2579 160.841 82.5771C160.778 81.9816 160.91 81.3816 161.219 80.8685C161.528 80.3555 161.997 79.9575 162.553 79.7354L159.037 79.3779Z" fill="black"/>
<g opacity="0.1">
<path opacity="0.1" d="M170.435 25.4951C170.193 24.8529 169.914 24.2251 169.6 23.615C169.397 23.654 169.197 23.7055 169 23.7691C169.353 24.3546 169.671 24.9605 169.952 25.5834C170.11 25.5423 170.27 25.5136 170.435 25.4951Z" fill="black"/>
<path opacity="0.1" d="M182.359 33.5967C182.414 33.6419 182.468 33.6933 182.521 33.7405C182.517 33.7272 182.512 33.7141 182.507 33.7015C182.46 33.6672 182.411 33.6323 182.359 33.5967Z" fill="black"/>
<path opacity="0.1" d="M163.254 34.5009C163.361 34.4167 163.459 34.3283 163.575 34.2462L163.542 33.2702L161.347 33.2476C160.991 33.5743 160.613 34.0427 160.823 34.4804L163.254 34.5009Z" fill="black"/>
<path opacity="0.1" d="M187.25 50.9305C186.86 51.6578 186.296 52.34 185.526 52.6338C184.932 52.8598 184.278 52.8393 183.643 52.8105C181.477 52.7222 179.274 52.6256 177.227 51.9085C176.269 51.5715 175.353 51.101 174.35 50.8935C173.176 50.651 171.962 50.7887 170.772 50.9284L165.527 51.5448C163.979 51.7256 162.255 51.8612 161.02 50.912C160.313 50.3695 159.857 49.525 159.082 49.0894C158.755 48.9045 158.367 48.7853 158.155 48.473C158.021 48.2411 157.951 47.9784 157.95 47.7107C157.933 47.495 157.923 47.2792 157.915 47.0635C157.892 47.6903 157.904 48.3179 157.95 48.9435C157.951 49.2112 158.021 49.4739 158.155 49.7058C158.361 50.0161 158.755 50.1353 159.082 50.3223C159.857 50.7579 160.315 51.6023 161.02 52.1448C162.253 53.0941 163.979 52.9667 165.527 52.7776L170.772 52.1612C171.962 52.0215 173.176 51.8838 174.35 52.1263C175.345 52.3318 176.261 52.8044 177.227 53.1413C179.282 53.8584 181.477 53.9632 183.643 54.0434C184.278 54.0701 184.932 54.0927 185.526 53.8666C186.296 53.5728 186.86 52.8907 187.25 52.1633C188.006 50.7558 188.218 49.1593 188.138 47.5504C188.094 48.7286 187.791 49.8827 187.25 50.9305Z" fill="black"/>
</g>
<path opacity="0.1" d="M170.375 26.8162L173.252 29.4873C173.252 29.4873 170.786 28.4599 170.375 26.8162Z" fill="black"/>
</g>
<defs>
<clipPath id="clip0">
<rect width="202" height="165" fill="white"/>
</clipPath>
</defs>
</svg>
