<svg width="240" height="191.54" viewBox="0 0 208 166" fill="none" xmlns="http://www.w3.org/2000/svg">
<g clip-path="url(#clip0)">
<path opacity="0.1" d="M59.7524 28.4697H44.1497C43.2497 28.4697 42.5201 29.1982 42.5201 30.0969V32.5365C42.5201 33.4352 43.2497 34.1637 44.1497 34.1637H59.7524C60.6524 34.1637 61.382 33.4352 61.382 32.5365V30.0969C61.382 29.1982 60.6524 28.4697 59.7524 28.4697Z" fill="#F9CF5A"/>
<path opacity="0.1" d="M79.4915 34.1636H63.8889C62.9889 34.1636 62.2593 34.8921 62.2593 35.7907V38.2304C62.2593 39.129 62.9889 39.8575 63.8889 39.8575H79.4915C80.3915 39.8575 81.1211 39.129 81.1211 38.2304V35.7907C81.1211 34.8921 80.3915 34.1636 79.4915 34.1636Z" fill="#F9CF5A"/>
<path opacity="0.1" d="M99.2307 39.8574H83.628C82.728 39.8574 81.9984 40.5859 81.9984 41.4846V43.9242C81.9984 44.8228 82.728 45.5513 83.628 45.5513H99.2307C100.131 45.5513 100.86 44.8228 100.86 43.9242V41.4846C100.86 40.5859 100.131 39.8574 99.2307 39.8574Z" fill="#F9CF5A"/>
<path opacity="0.1" d="M59.7524 19.9287H44.1497C43.2497 19.9287 42.5201 20.6572 42.5201 21.5559V23.9955C42.5201 24.8941 43.2497 25.6226 44.1497 25.6226H59.7524C60.6524 25.6226 61.382 24.8941 61.382 23.9955V21.5559C61.382 20.6572 60.6524 19.9287 59.7524 19.9287Z" fill="#F9CF5A"/>
<path opacity="0.1" d="M79.4915 25.6228H63.8889C62.9889 25.6228 62.2593 26.3513 62.2593 27.25V29.6896C62.2593 30.5882 62.9889 31.3167 63.8889 31.3167H79.4915C80.3915 31.3167 81.1211 30.5882 81.1211 29.6896V27.25C81.1211 26.3513 80.3915 25.6228 79.4915 25.6228Z" fill="#F9CF5A"/>
<path opacity="0.1" d="M99.2307 31.3167H83.628C82.728 31.3167 81.9984 32.0451 81.9984 32.9438V35.3834C81.9984 36.2821 82.728 37.0106 83.628 37.0106H99.2307C100.131 37.0106 100.86 36.2821 100.86 35.3834V32.9438C100.86 32.0451 100.131 31.3167 99.2307 31.3167Z" fill="#F9CF5A"/>
<path opacity="0.1" d="M121.163 28.4697H105.56C104.66 28.4697 103.931 29.1982 103.931 30.0969V32.5365C103.931 33.4352 104.66 34.1637 105.56 34.1637H121.163C122.063 34.1637 122.793 33.4352 122.793 32.5365V30.0969C122.793 29.1982 122.063 28.4697 121.163 28.4697Z" fill="#F9CF5A"/>
<path opacity="0.1" d="M140.902 34.1636H125.3C124.4 34.1636 123.67 34.8921 123.67 35.7907V38.2304C123.67 39.129 124.4 39.8575 125.3 39.8575H140.902C141.802 39.8575 142.532 39.129 142.532 38.2304V35.7907C142.532 34.8921 141.802 34.1636 140.902 34.1636Z" fill="#F9CF5A"/>
<path opacity="0.1" d="M160.641 39.8574H145.039C144.139 39.8574 143.409 40.5859 143.409 41.4846V43.9242C143.409 44.8228 144.139 45.5513 145.039 45.5513H160.641C161.541 45.5513 162.271 44.8228 162.271 43.9242V41.4846C162.271 40.5859 161.541 39.8574 160.641 39.8574Z" fill="#F9CF5A"/>
<path opacity="0.1" d="M121.163 19.9287H105.56C104.66 19.9287 103.931 20.6572 103.931 21.5559V23.9955C103.931 24.8941 104.66 25.6226 105.56 25.6226H121.163C122.063 25.6226 122.793 24.8941 122.793 23.9955V21.5559C122.793 20.6572 122.063 19.9287 121.163 19.9287Z" fill="#F9CF5A"/>
<path opacity="0.1" d="M140.902 25.6228H125.3C124.4 25.6228 123.67 26.3513 123.67 27.25V29.6896C123.67 30.5882 124.4 31.3167 125.3 31.3167H140.902C141.802 31.3167 142.532 30.5882 142.532 29.6896V27.25C142.532 26.3513 141.802 25.6228 140.902 25.6228Z" fill="#F9CF5A"/>
<path opacity="0.1" d="M160.641 31.3167H145.039C144.139 31.3167 143.409 32.0451 143.409 32.9438V35.3834C143.409 36.2821 144.139 37.0106 145.039 37.0106H160.641C161.541 37.0106 162.271 36.2821 162.271 35.3834V32.9438C162.271 32.0451 161.541 31.3167 160.641 31.3167Z" fill="#F9CF5A"/>
<path opacity="0.1" d="M59.7524 8.54102H44.1497C43.2497 8.54102 42.5201 9.26952 42.5201 10.1682V12.6078C42.5201 13.5064 43.2497 14.2349 44.1497 14.2349H59.7524C60.6524 14.2349 61.382 13.5064 61.382 12.6078V10.1682C61.382 9.26952 60.6524 8.54102 59.7524 8.54102Z" fill="#F9CF5A"/>
<path opacity="0.1" d="M79.4915 14.2349H63.8889C62.9889 14.2349 62.2593 14.9634 62.2593 15.862V18.3016C62.2593 19.2003 62.9889 19.9288 63.8889 19.9288H79.4915C80.3915 19.9288 81.1211 19.2003 81.1211 18.3016V15.862C81.1211 14.9634 80.3915 14.2349 79.4915 14.2349Z" fill="#F9CF5A"/>
<path opacity="0.1" d="M99.2307 19.9287H83.628C82.728 19.9287 81.9984 20.6572 81.9984 21.5559V23.9955C81.9984 24.8941 82.728 25.6226 83.628 25.6226H99.2307C100.131 25.6226 100.86 24.8941 100.86 23.9955V21.5559C100.86 20.6572 100.131 19.9287 99.2307 19.9287Z" fill="#F9CF5A"/>
<path opacity="0.1" d="M59.7524 0H44.1497C43.2497 0 42.5201 0.7285 42.5201 1.62715V4.06678C42.5201 4.96543 43.2497 5.69393 44.1497 5.69393H59.7524C60.6524 5.69393 61.382 4.96543 61.382 4.06678V1.62715C61.382 0.7285 60.6524 0 59.7524 0Z" fill="#F9CF5A"/>
<path opacity="0.1" d="M79.4915 5.69385H63.8889C62.9889 5.69385 62.2593 6.42235 62.2593 7.321V9.76063C62.2593 10.6593 62.9889 11.3878 63.8889 11.3878H79.4915C80.3915 11.3878 81.1211 10.6593 81.1211 9.76063V7.321C81.1211 6.42235 80.3915 5.69385 79.4915 5.69385Z" fill="#F9CF5A"/>
<path opacity="0.1" d="M99.2307 11.3879H83.628C82.728 11.3879 81.9984 12.1164 81.9984 13.0151V15.4547C81.9984 16.3534 82.728 17.0819 83.628 17.0819H99.2307C100.131 17.0819 100.86 16.3534 100.86 15.4547V13.0151C100.86 12.1164 100.131 11.3879 99.2307 11.3879Z" fill="#F9CF5A"/>
<path opacity="0.1" d="M121.163 8.54102H105.56C104.66 8.54102 103.931 9.26952 103.931 10.1682V12.6078C103.931 13.5064 104.66 14.2349 105.56 14.2349H121.163C122.063 14.2349 122.793 13.5064 122.793 12.6078V10.1682C122.793 9.26952 122.063 8.54102 121.163 8.54102Z" fill="#F9CF5A"/>
<path opacity="0.1" d="M140.902 14.2349H125.3C124.4 14.2349 123.67 14.9634 123.67 15.862V18.3016C123.67 19.2003 124.4 19.9288 125.3 19.9288H140.902C141.802 19.9288 142.532 19.2003 142.532 18.3016V15.862C142.532 14.9634 141.802 14.2349 140.902 14.2349Z" fill="#F9CF5A"/>
<path opacity="0.1" d="M160.641 19.9287H145.039C144.139 19.9287 143.409 20.6572 143.409 21.5559V23.9955C143.409 24.8941 144.139 25.6226 145.039 25.6226H160.641C161.541 25.6226 162.271 24.8941 162.271 23.9955V21.5559C162.271 20.6572 161.541 19.9287 160.641 19.9287Z" fill="#F9CF5A"/>
<path opacity="0.1" d="M121.163 0H105.56C104.66 0 103.931 0.7285 103.931 1.62715V4.06678C103.931 4.96543 104.66 5.69393 105.56 5.69393H121.163C122.063 5.69393 122.793 4.96543 122.793 4.06678V1.62715C122.793 0.7285 122.063 0 121.163 0Z" fill="#F9CF5A"/>
<path opacity="0.1" d="M140.902 5.69385H125.3C124.4 5.69385 123.67 6.42235 123.67 7.321V9.76063C123.67 10.6593 124.4 11.3878 125.3 11.3878H140.902C141.802 11.3878 142.532 10.6593 142.532 9.76063V7.321C142.532 6.42235 141.802 5.69385 140.902 5.69385Z" fill="#F9CF5A"/>
<path opacity="0.1" d="M160.641 11.3879H145.039C144.139 11.3879 143.409 12.1164 143.409 13.0151V15.4547C143.409 16.3534 144.139 17.0819 145.039 17.0819H160.641C161.541 17.0819 162.271 16.3534 162.271 15.4547V13.0151C162.271 12.1164 161.541 11.3879 160.641 11.3879Z" fill="#F9CF5A"/>
<path opacity="0.1" d="M59.7524 129.865H44.1497C43.2497 129.865 42.5201 130.594 42.5201 131.493V133.932C42.5201 134.831 43.2497 135.559 44.1497 135.559H59.7524C60.6524 135.559 61.382 134.831 61.382 133.932V131.493C61.382 130.594 60.6524 129.865 59.7524 129.865Z" fill="#F9CF5A"/>
<path opacity="0.1" d="M79.4915 135.559H63.8889C62.9889 135.559 62.2593 136.288 62.2593 137.186V139.626C62.2593 140.525 62.9889 141.253 63.8889 141.253H79.4915C80.3915 141.253 81.1211 140.525 81.1211 139.626V137.186C81.1211 136.288 80.3915 135.559 79.4915 135.559Z" fill="#F9CF5A"/>
<path opacity="0.1" d="M99.2307 141.253H83.628C82.728 141.253 81.9984 141.982 81.9984 142.881V145.32C81.9984 146.219 82.728 146.947 83.628 146.947H99.2307C100.131 146.947 100.86 146.219 100.86 145.32V142.881C100.86 141.982 100.131 141.253 99.2307 141.253Z" fill="#F9CF5A"/>
<path opacity="0.1" d="M59.7524 121.324H44.1497C43.2497 121.324 42.5201 122.053 42.5201 122.952V125.391C42.5201 126.29 43.2497 127.018 44.1497 127.018H59.7524C60.6524 127.018 61.382 126.29 61.382 125.391V122.952C61.382 122.053 60.6524 121.324 59.7524 121.324Z" fill="#F9CF5A"/>
<path opacity="0.1" d="M79.4915 127.019H63.8889C62.9889 127.019 62.2593 127.747 62.2593 128.646V131.085C62.2593 131.984 62.9889 132.712 63.8889 132.712H79.4915C80.3915 132.712 81.1211 131.984 81.1211 131.085V128.646C81.1211 127.747 80.3915 127.019 79.4915 127.019Z" fill="#F9CF5A"/>
<path opacity="0.1" d="M99.2307 132.712H83.628C82.728 132.712 81.9984 133.441 81.9984 134.34V136.779C81.9984 137.678 82.728 138.406 83.628 138.406H99.2307C100.131 138.406 100.86 137.678 100.86 136.779V134.34C100.86 133.441 100.131 132.712 99.2307 132.712Z" fill="#F9CF5A"/>
<path opacity="0.1" d="M121.163 129.865H105.56C104.66 129.865 103.931 130.594 103.931 131.493V133.932C103.931 134.831 104.66 135.559 105.56 135.559H121.163C122.063 135.559 122.793 134.831 122.793 133.932V131.493C122.793 130.594 122.063 129.865 121.163 129.865Z" fill="#F9CF5A"/>
<path opacity="0.1" d="M140.902 135.559H125.3C124.4 135.559 123.67 136.288 123.67 137.186V139.626C123.67 140.525 124.4 141.253 125.3 141.253H140.902C141.802 141.253 142.532 140.525 142.532 139.626V137.186C142.532 136.288 141.802 135.559 140.902 135.559Z" fill="#F9CF5A"/>
<path opacity="0.1" d="M160.641 141.253H145.039C144.139 141.253 143.409 141.982 143.409 142.881V145.32C143.409 146.219 144.139 146.947 145.039 146.947H160.641C161.541 146.947 162.271 146.219 162.271 145.32V142.881C162.271 141.982 161.541 141.253 160.641 141.253Z" fill="#F9CF5A"/>
<path opacity="0.1" d="M121.163 121.324H105.56C104.66 121.324 103.931 122.053 103.931 122.952V125.391C103.931 126.29 104.66 127.018 105.56 127.018H121.163C122.063 127.018 122.793 126.29 122.793 125.391V122.952C122.793 122.053 122.063 121.324 121.163 121.324Z" fill="#F9CF5A"/>
<path opacity="0.1" d="M140.902 127.019H125.3C124.4 127.019 123.67 127.747 123.67 128.646V131.085C123.67 131.984 124.4 132.712 125.3 132.712H140.902C141.802 132.712 142.532 131.984 142.532 131.085V128.646C142.532 127.747 141.802 127.019 140.902 127.019Z" fill="#F9CF5A"/>
<path opacity="0.1" d="M160.641 132.712H145.039C144.139 132.712 143.409 133.441 143.409 134.34V136.779C143.409 137.678 144.139 138.406 145.039 138.406H160.641C161.541 138.406 162.271 137.678 162.271 136.779V134.34C162.271 133.441 161.541 132.712 160.641 132.712Z" fill="#F9CF5A"/>
<path opacity="0.1" d="M59.7524 109.937H44.1497C43.2497 109.937 42.5201 110.665 42.5201 111.564V114.004C42.5201 114.902 43.2497 115.631 44.1497 115.631H59.7524C60.6524 115.631 61.382 114.902 61.382 114.004V111.564C61.382 110.665 60.6524 109.937 59.7524 109.937Z" fill="#F9CF5A"/>
<path opacity="0.1" d="M79.4915 115.631H63.8889C62.9889 115.631 62.2593 116.359 62.2593 117.258V119.697C62.2593 120.596 62.9889 121.325 63.8889 121.325H79.4915C80.3915 121.325 81.1211 120.596 81.1211 119.697V117.258C81.1211 116.359 80.3915 115.631 79.4915 115.631Z" fill="#F9CF5A"/>
<path opacity="0.1" d="M99.2307 121.324H83.628C82.728 121.324 81.9984 122.053 81.9984 122.952V125.391C81.9984 126.29 82.728 127.018 83.628 127.018H99.2307C100.131 127.018 100.86 126.29 100.86 125.391V122.952C100.86 122.053 100.131 121.324 99.2307 121.324Z" fill="#F9CF5A"/>
<path opacity="0.1" d="M59.7524 101.396H44.1497C43.2497 101.396 42.5201 102.124 42.5201 103.023V105.463C42.5201 106.361 43.2497 107.09 44.1497 107.09H59.7524C60.6524 107.09 61.382 106.361 61.382 105.463V103.023C61.382 102.124 60.6524 101.396 59.7524 101.396Z" fill="#F9CF5A"/>
<path opacity="0.1" d="M79.4915 107.09H63.8889C62.9889 107.09 62.2593 107.818 62.2593 108.717V111.156C62.2593 112.055 62.9889 112.784 63.8889 112.784H79.4915C80.3915 112.784 81.1211 112.055 81.1211 111.156V108.717C81.1211 107.818 80.3915 107.09 79.4915 107.09Z" fill="#F9CF5A"/>
<path opacity="0.1" d="M99.2307 112.784H83.628C82.728 112.784 81.9984 113.512 81.9984 114.411V116.85C81.9984 117.749 82.728 118.478 83.628 118.478H99.2307C100.131 118.478 100.86 117.749 100.86 116.85V114.411C100.86 113.512 100.131 112.784 99.2307 112.784Z" fill="#F9CF5A"/>
<path opacity="0.1" d="M121.163 109.937H105.56C104.66 109.937 103.931 110.665 103.931 111.564V114.004C103.931 114.902 104.66 115.631 105.56 115.631H121.163C122.063 115.631 122.793 114.902 122.793 114.004V111.564C122.793 110.665 122.063 109.937 121.163 109.937Z" fill="#F9CF5A"/>
<path opacity="0.1" d="M140.902 115.631H125.3C124.4 115.631 123.67 116.359 123.67 117.258V119.697C123.67 120.596 124.4 121.325 125.3 121.325H140.902C141.802 121.325 142.532 120.596 142.532 119.697V117.258C142.532 116.359 141.802 115.631 140.902 115.631Z" fill="#F9CF5A"/>
<path opacity="0.1" d="M160.641 121.324H145.039C144.139 121.324 143.409 122.053 143.409 122.952V125.391C143.409 126.29 144.139 127.018 145.039 127.018H160.641C161.541 127.018 162.271 126.29 162.271 125.391V122.952C162.271 122.053 161.541 121.324 160.641 121.324Z" fill="#F9CF5A"/>
<path opacity="0.1" d="M121.163 101.396H105.56C104.66 101.396 103.931 102.124 103.931 103.023V105.463C103.931 106.361 104.66 107.09 105.56 107.09H121.163C122.063 107.09 122.793 106.361 122.793 105.463V103.023C122.793 102.124 122.063 101.396 121.163 101.396Z" fill="#F9CF5A"/>
<path opacity="0.1" d="M140.902 107.09H125.3C124.4 107.09 123.67 107.818 123.67 108.717V111.156C123.67 112.055 124.4 112.784 125.3 112.784H140.902C141.802 112.784 142.532 112.055 142.532 111.156V108.717C142.532 107.818 141.802 107.09 140.902 107.09Z" fill="#F9CF5A"/>
<path opacity="0.1" d="M160.641 112.784H145.039C144.139 112.784 143.409 113.512 143.409 114.411V116.85C143.409 117.749 144.139 118.478 145.039 118.478H160.641C161.541 118.478 162.271 117.749 162.271 116.85V114.411C162.271 113.512 161.541 112.784 160.641 112.784Z" fill="#F9CF5A"/>
<path opacity="0.1" d="M105.795 166C158.91 166 201.968 162.47 201.968 158.116C201.968 153.762 158.91 150.232 105.795 150.232C52.6799 150.232 9.62158 153.762 9.62158 158.116C9.62158 162.47 52.6799 166 105.795 166Z" fill="#F9CF5A"/>
<path d="M18.5658 40.9087C27.6348 44.8332 32.8459 52.9536 32.8459 52.9536C32.8459 52.9536 23.3514 54.7056 14.2802 50.7833C5.20894 46.8611 0 38.7385 0 38.7385C0 38.7385 9.49452 36.9843 18.5658 40.9087Z" fill="#F9CF5A"/>
<path d="M46.398 25.8417C49.2032 21.2427 53.9801 19.0527 53.9801 19.0527C53.9801 19.0527 54.1994 24.2955 51.403 28.8813C48.6066 33.4671 43.8188 35.6549 43.8188 35.6549C43.8188 35.6549 43.5907 30.4143 46.398 25.8417Z" fill="#F9CF5A"/>
<path d="M25.777 30.7625C27.7839 37.915 33.3152 42.6234 33.3152 42.6234C33.3152 42.6234 35.594 35.7316 33.5872 28.577C31.5803 21.4223 26.0468 16.7161 26.0468 16.7161C26.0468 16.7161 23.768 23.6079 25.777 30.7625Z" fill="#46455B"/>
<path d="M184.377 30.4407H27.6522C26.7789 30.4407 26.0709 31.1476 26.0709 32.0196V108.796C26.0709 109.668 26.7789 110.375 27.6522 110.375H184.377C185.25 110.375 185.958 109.668 185.958 108.796V32.0196C185.958 31.1476 185.25 30.4407 184.377 30.4407Z" fill="#3F3D56"/>
<path opacity="0.1" d="M26.0709 105.557H185.958V108.796C185.958 109.214 185.791 109.616 185.495 109.912C185.198 110.208 184.796 110.375 184.377 110.375H27.6522C27.2329 110.375 26.8306 110.208 26.5341 109.912C26.2375 109.616 26.0709 109.214 26.0709 108.796V105.557Z" fill="black"/>
<path d="M52.938 99.6438H42.1911C41.8883 99.6438 41.6428 99.8889 41.6428 100.191V105.009C41.6428 105.312 41.8883 105.557 42.1911 105.557H52.938C53.2408 105.557 53.4863 105.312 53.4863 105.009V100.191C53.4863 99.8889 53.2408 99.6438 52.938 99.6438Z" fill="#F9CF5A"/>
<path d="M64.4526 104.681H57.2149C56.9726 104.681 56.7762 104.877 56.7762 105.119C56.7762 105.361 56.9726 105.557 57.2149 105.557H64.4526C64.6948 105.557 64.8912 105.361 64.8912 105.119C64.8912 104.877 64.6948 104.681 64.4526 104.681Z" fill="#F9CF5A"/>
<path d="M49.5715 46.0727C55.3594 47.1392 61.2636 46.0727 67.0274 45.35L84.5448 43.16C85.2532 43.0702 86.2841 42.6476 86.7008 43.5126C86.9355 43.9966 86.7775 45.0456 86.7951 45.6018C86.8411 47.1348 86.8368 48.6678 86.7951 50.2008C86.7161 53.131 86.5012 56.0546 86.227 58.9716C85.6941 64.6809 84.9396 70.3595 84.5624 76.0907C84.3694 79.0077 84.2729 81.9335 84.3584 84.8506C84.3781 85.547 84.4066 86.2434 84.4483 86.9376C84.4944 87.715 84.8431 88.8692 83.9943 89.3882C83.5096 89.686 82.5556 89.6707 82.0007 89.7583C81.1234 89.8962 80.2461 90.0057 79.3512 90.0955C73.4536 90.6846 67.4793 90.4394 61.5597 90.4043L43.6848 90.3124L39.3247 90.2883C38.9299 90.2883 37.5065 90.5248 37.263 90.0561C37.16 89.8568 37.4341 88.9239 37.4824 88.6742C37.5496 88.2625 37.6227 87.8515 37.7017 87.4413C38.2105 84.5615 38.8115 81.6992 39.4168 78.8391C40.7174 72.7071 42.0487 66.5446 42.5838 60.2812C42.8492 57.1386 42.6738 53.9675 42.9984 50.8315C43.1497 49.3752 43.3295 46.1252 45.2706 45.996C46.9155 45.8865 48.6087 45.996 50.258 45.996C50.3452 45.996 50.4289 45.9614 50.4906 45.8998C50.5523 45.8382 50.587 45.7547 50.587 45.6675C50.587 45.5804 50.5523 45.4969 50.4906 45.4353C50.4289 45.3736 50.3452 45.339 50.258 45.339C48.7008 45.339 47.1414 45.2974 45.5842 45.3281C44.549 45.3478 43.8296 45.5931 43.3361 46.5435C42.075 48.9832 42.2044 52.2375 42.1649 54.9005C42.0706 61.2755 41.0902 67.5147 39.8138 73.7496C39.1712 76.8878 38.4781 80.0151 37.8399 83.1555C37.5394 84.6556 37.2521 86.1602 36.9889 87.669C36.8661 88.3874 36.2454 89.9707 36.7915 90.6299C37.3376 91.2891 39.0176 90.9343 39.7699 90.9387L45.003 90.9693L55.0305 91.0263C61.5093 91.0635 68.01 91.2453 74.4866 91.0547C77.5791 90.9628 80.847 90.8358 83.8583 90.0977C84.7554 89.8787 85.1874 89.467 85.2225 88.5122C85.2752 87.0318 85.0339 85.5054 85.0032 84.0184C84.7839 71.2946 87.7777 58.7483 87.4706 46.0201C87.4509 45.1551 87.7776 42.9739 86.8302 42.4505C86.4047 42.2139 85.852 42.3432 85.4046 42.3957C84.5492 42.4943 83.696 42.6147 82.8407 42.7154L71.7319 44.0995C68.1811 44.5375 64.6324 45.0105 61.075 45.4135C57.3092 45.8515 53.5062 46.1121 49.7535 45.4135C49.339 45.3368 49.1614 45.9698 49.5781 46.0464L49.5715 46.0727Z" fill="#F9CF5A"/>
<path d="M42.5881 53.8142L86.4134 51.668C86.8367 51.6461 86.8389 50.9891 86.4134 51.011L42.5881 53.1572C42.167 53.1769 42.1648 53.8339 42.5881 53.8142Z" fill="#F9CF5A"/>
<path d="M56.0899 48.3985C55.9674 48.5282 55.8784 48.6858 55.8307 48.8577C55.783 49.0295 55.7781 49.2104 55.8164 49.3846C55.8546 49.5587 55.9349 49.721 56.0502 49.8571C56.1656 49.9933 56.3124 50.0992 56.4781 50.1658C57.0681 50.4352 57.7612 50.2096 58.3468 50.0629C59.2241 49.8439 60.1013 49.649 61.0028 49.4891C62.9647 49.1423 64.9519 48.9577 66.9442 48.9372C67.8522 48.9263 68.7537 48.9679 69.6617 49.0073C70.3196 49.0336 71.0281 49.0861 71.5851 48.6788C72.2212 48.2145 72.4273 47.3079 71.8045 46.7429C70.9272 45.9435 69.0366 46.4078 68.0233 46.491C64.3465 46.796 60.6936 47.3403 57.0878 48.1204C56.6755 48.208 56.8488 48.843 57.2633 48.7533C59.6422 48.2408 62.0394 47.8291 64.4549 47.5181C65.6422 47.3721 66.8317 47.2487 68.0233 47.148C68.5848 47.102 69.1463 47.0604 69.7077 47.0276C69.9271 47.0144 70.1595 46.9903 70.3833 46.9969C71.0785 47.0122 71.1597 46.8874 70.7429 47.7262C70.3723 48.4686 70.4907 48.3832 69.8481 48.3591C69.5761 48.3591 69.3042 48.3284 69.0322 48.3153C68.4751 48.2919 67.9181 48.2795 67.361 48.278C66.1752 48.278 64.9923 48.335 63.8123 48.4489C62.8122 48.5452 61.8143 48.681 60.8251 48.8562C60.2066 48.9657 59.5925 49.0927 58.9806 49.2329C58.7108 49.2964 58.4389 49.3621 58.1691 49.43C58.0397 49.465 57.9081 49.4957 57.7787 49.5285C57.2991 49.695 56.8905 49.476 56.5527 48.8715C56.8466 48.5671 56.3838 48.1006 56.0877 48.4072L56.0899 48.3985Z" fill="#F9CF5A"/>
<path d="M64.0338 57.7451C60.8602 57.6225 57.4321 58.4788 55.342 61.0301C53.7058 63.0252 52.7737 66.4481 54.5064 68.695C56.3684 71.104 60.4522 70.6791 62.9152 69.652C65.5208 68.557 68.372 66.2992 69.155 63.4741C70.131 59.9461 66.9617 57.2787 63.6609 57.2393C63.2376 57.2393 63.2376 57.8962 63.6609 57.8962C65.5427 57.9181 67.3894 58.7241 68.2667 60.4739C69.1857 62.3178 68.3939 64.2537 67.1701 65.7298C65.2093 68.0796 62.1432 69.8513 59.02 69.801C57.1448 69.7725 55.0722 69.1308 54.491 67.1555C54.0129 65.5546 54.3769 63.8048 55.2104 62.3857C57.0132 59.3197 60.6825 58.2817 64.0469 58.4131C64.4702 58.4284 64.4702 57.7714 64.0469 57.7561L64.0338 57.7451Z" fill="#F9CF5A"/>
<path d="M60.8821 62.6115C60.7468 62.5614 60.601 62.5463 60.4582 62.5677C60.3155 62.589 60.1805 62.646 60.0658 62.7335C59.9511 62.8209 59.8605 62.9359 59.8022 63.0677C59.744 63.1995 59.7201 63.3439 59.7328 63.4875C59.7986 64.3416 60.7417 64.5825 61.4501 64.5321C62.062 64.4795 62.777 64.254 62.5621 63.4897C62.5226 63.3544 62.4543 63.2292 62.3619 63.1226C62.2696 63.0161 62.1553 62.9306 62.0269 62.8721C61.8307 62.7943 61.6178 62.7679 61.4085 62.7954C61.3273 62.7954 60.5838 63.067 60.8996 62.7407L60.382 62.6728C60.4395 62.7294 60.4835 62.7981 60.5108 62.8739C60.5381 62.9497 60.5481 63.0306 60.5399 63.1108C60.5409 63.168 60.5568 63.224 60.5859 63.2733C60.6151 63.3226 60.6566 63.3635 60.7063 63.392C60.7561 63.4204 60.8124 63.4355 60.8697 63.4358C60.927 63.436 60.9834 63.4214 61.0334 63.3933C61.1087 63.3618 61.1912 63.352 61.2718 63.3648C61.3523 63.3776 61.4277 63.4126 61.4895 63.4658C61.5512 63.519 61.5969 63.5884 61.6213 63.6661C61.6457 63.7438 61.648 63.8268 61.6278 63.9057C61.6101 63.9816 61.6198 64.0613 61.6552 64.1307C61.6906 64.2001 61.7494 64.2548 61.8212 64.2852C61.8931 64.3155 61.9733 64.3196 62.0479 64.2967C62.1224 64.2737 62.1865 64.2253 62.2287 64.1598C62.4481 63.7656 62.7134 62.9816 62.3845 62.5699C62.1651 62.2917 61.7418 62.375 61.4786 62.537C61.3162 62.6518 61.1649 62.7816 61.0268 62.9246C60.7614 63.159 60.5882 63.2685 60.6869 62.8195C60.8514 62.0027 61.6322 61.3522 62.345 61.0259L61.8625 60.6558C61.6095 61.605 61.1572 62.4897 60.5355 63.2509L61.097 63.4831C61.0811 63.1824 61.1585 62.8841 61.3186 62.6289C61.4788 62.3738 61.7139 62.1742 61.9919 62.0574H61.6694L61.8405 62.3377C61.7769 62.7516 62.4108 62.929 62.4744 62.5107C62.5577 61.9698 62.2156 61.2668 61.5817 61.5318C60.825 61.8472 60.4325 62.7122 60.4478 63.4831C60.4478 63.7459 60.8207 63.9495 61.0115 63.7174C61.709 62.8713 62.2181 61.8866 62.5051 60.8288C62.5203 60.7661 62.517 60.7002 62.4954 60.6394C62.4738 60.5785 62.435 60.5252 62.3836 60.4859C62.3322 60.4467 62.2705 60.4232 62.206 60.4184C62.1415 60.4136 62.077 60.4276 62.0204 60.4587C61.3634 60.7553 60.8081 61.2381 60.4237 61.8472C60.1561 62.2852 59.8205 62.9684 60.0925 63.4721C60.1371 63.5527 60.1972 63.6237 60.2694 63.6809C60.3417 63.7381 60.4245 63.7805 60.5133 63.8056C60.602 63.8306 60.6948 63.8379 60.7863 63.8269C60.8779 63.8159 60.9663 63.7868 61.0466 63.7415C61.2493 63.6214 61.4346 63.4741 61.5971 63.3035C61.6782 63.2312 61.7681 63.1064 61.8756 63.0845C61.9721 63.0188 61.9677 63.056 61.8603 63.2006C61.8588 63.4275 61.7926 63.6493 61.6694 63.8401L62.2704 64.0919C62.3245 63.8874 62.3182 63.6716 62.2522 63.4707C62.1862 63.2697 62.0633 63.0921 61.8983 62.9594C61.7334 62.8267 61.5335 62.7445 61.3228 62.7228C61.1121 62.7011 60.8996 62.7408 60.711 62.837L61.2067 63.1217C61.217 62.8431 61.1294 62.5695 60.9588 62.3487C60.933 62.3061 60.8978 62.2698 60.856 62.2426C60.8143 62.2154 60.7669 62.1979 60.7174 62.1913C60.668 62.1848 60.6177 62.1895 60.5702 62.205C60.5228 62.2204 60.4795 62.2464 60.4434 62.2808C60.11 62.629 60.0464 63.2312 60.4654 63.5532C60.779 63.7919 60.9325 63.5532 61.2769 63.4984C62.4459 63.3473 61.7638 63.8729 61.3514 63.8904C61.167 63.9102 60.9806 63.8968 60.8009 63.851C60.3433 63.6962 60.3147 63.4969 60.7154 63.2531C61.108 63.413 61.2769 62.7779 60.8908 62.6202L60.8821 62.6115Z" fill="#F9CF5A"/>
<path d="M60.3535 63.8113C60.6232 64.6873 59.5091 64.9764 58.9805 65.2786C58.6096 65.4863 58.2861 65.769 58.0308 66.1086C57.4781 66.8488 57.272 67.7905 57.0899 68.6774C57.0066 69.0913 57.6404 69.2665 57.726 68.8526C57.8263 68.2009 58.0129 67.5653 58.2809 66.9627C58.6756 66.1787 59.2415 65.9159 59.9784 65.5129C60.7153 65.1099 61.2483 64.4858 60.9873 63.6361C60.8645 63.2331 60.2284 63.4061 60.3535 63.8113Z" fill="#F9CF5A"/>
<path d="M61.45 63.3711C61.2931 63.3928 61.1499 63.4721 61.0485 63.5936C60.9471 63.7151 60.8947 63.8701 60.9017 64.0281C60.9017 64.2887 61.075 64.4551 61.1934 64.6632C61.4745 65.0888 61.689 65.5548 61.8294 66.045C61.9347 66.5159 62.0378 67.359 61.7921 67.797C61.3381 68.6095 60.5179 68.454 59.8182 68.454C59.1603 68.454 58.6514 68.673 58.6734 67.7576C58.6865 67.243 59.0462 66.7218 59.3313 66.3166L58.7304 66.2378C58.8572 66.9065 58.9239 67.5851 58.93 68.2657C58.93 68.5701 59.3971 68.7387 59.5419 68.4299C59.8945 67.6893 60.1743 66.9163 60.3775 66.1217L59.7305 66.0341L59.8445 67.6985C59.8464 67.7695 59.8712 67.838 59.9152 67.8939C59.9591 67.9498 60.0199 67.9901 60.0886 68.0087C60.1572 68.0274 60.2301 68.0235 60.2963 67.9976C60.3626 67.9717 60.4187 67.9252 60.4565 67.8649C60.5333 67.7803 60.5896 67.6791 60.621 67.5693C60.6429 67.4663 60.4411 66.7721 60.36 67.0196L61.0048 67.1072L61.0508 65.526L60.3929 65.6136C60.5319 66.0595 60.5738 66.5299 60.5157 66.9933C60.474 67.359 61.0903 67.4423 61.1736 67.0809L61.586 64.9566L60.985 65.0333C61.1278 65.3271 61.1672 65.6604 61.0969 65.9794C61.0486 66.3998 61.7066 66.3954 61.7549 65.9794C61.8107 65.5433 61.7407 65.1003 61.5531 64.7026C61.5197 64.6478 61.4711 64.6038 61.4132 64.5761C61.3553 64.5483 61.2906 64.538 61.2269 64.5464C61.1632 64.5547 61.1033 64.5814 61.0545 64.6231C61.0057 64.6649 60.9702 64.7199 60.9521 64.7814L60.5376 66.9057L61.1846 66.9933C61.2504 66.4713 61.2002 65.9411 61.0377 65.4406C61.0157 65.3652 60.9674 65.3001 60.9015 65.2572C60.8356 65.2143 60.7565 65.1964 60.6785 65.2067C60.6005 65.2171 60.5288 65.255 60.4764 65.3135C60.424 65.3721 60.3944 65.4475 60.3929 65.526L60.3468 67.1072C60.3468 67.4904 60.8798 67.5452 60.9938 67.1948L61.0289 67.0875C61.0441 67.0316 61.0444 66.9726 61.0298 66.9166C61.0151 66.8605 60.9861 66.8092 60.9456 66.7677C60.2635 66.0275 60.1253 67.2057 59.8884 67.532L60.5025 67.6985L60.3885 66.0341C60.3643 65.6793 59.838 65.5698 59.7415 65.9465C59.5561 66.6872 59.299 67.4082 58.9738 68.0992L59.5879 68.2657C59.5809 67.5262 59.5075 66.7889 59.3686 66.0626C59.3116 65.7604 58.9146 65.7735 58.7677 65.9837C58.329 66.6144 57.5702 67.9919 58.1558 68.7475C58.6668 69.4045 60.2744 69.1504 60.9609 69.1088C62.0444 69.0475 62.437 68.362 62.5554 67.3415C62.6118 66.8528 62.5844 66.3581 62.4742 65.8786C62.415 65.6202 61.8163 63.9821 61.6364 64.0149C62.0531 63.9383 61.8755 63.3032 61.461 63.3799L61.45 63.3711Z" fill="#F9CF5A"/>
<path d="M60.1758 64.8474L58.3796 67.2148L58.9476 67.5455L60.2636 65.6446L59.6626 65.3905L59.0068 67.8893C58.9892 67.9652 58.9989 68.0448 59.0343 68.1142C59.0697 68.1836 59.1285 68.2383 59.2003 68.2687C59.2721 68.2991 59.3524 68.3031 59.4269 68.2802C59.5015 68.2573 59.5655 68.2088 59.6078 68.1433C59.9062 67.6496 60.2412 67.1789 60.6101 66.7352L60.0618 66.4154C59.9145 66.9812 59.6306 67.5023 59.2349 67.9331L59.7854 68.2528C59.8191 67.9502 59.8998 67.6547 60.0245 67.3768C60.1934 66.998 59.6582 66.6629 59.4565 67.044C59.2709 67.391 59.059 67.7234 58.8226 68.0382L59.4236 68.1171L59.5573 67.4929L58.9564 67.4141L59.0529 67.9616C59.0687 68.0166 59.0986 68.0667 59.1397 68.1067C59.1807 68.1468 59.2315 68.1755 59.287 68.1901C59.3425 68.2047 59.4009 68.2046 59.4563 68.1899C59.5118 68.1752 59.5625 68.1463 59.6034 68.1061C60.1597 67.5313 60.6057 66.8596 60.9193 66.1242H60.3535C60.5023 66.398 60.6066 66.6937 60.6627 67.0002C60.7417 67.3944 61.2659 67.2476 61.3076 66.9126C61.4018 66.179 61.4501 65.4403 61.4523 64.7007H60.7943V66.0782C60.7943 66.4352 61.3799 66.5403 61.4413 66.1658C61.4848 65.8336 61.5944 65.5134 61.7637 65.2241H61.1869C61.3259 65.448 61.4017 65.7053 61.4062 65.9687C61.4062 66.0558 61.4409 66.1394 61.5026 66.201C61.5643 66.2626 61.648 66.2972 61.7352 66.2972C61.8225 66.2972 61.9062 66.2626 61.9679 66.201C62.0296 66.1394 62.0642 66.0558 62.0642 65.9687L62.1476 65.5307H61.5137C61.5773 65.9183 61.8186 68.1017 60.961 67.8455C60.8163 67.8105 60.7746 67.8192 60.836 67.8696L61.0312 67.4535L61.4896 66.4833L60.8755 66.3169C60.915 66.768 60.9566 67.4119 60.6847 67.7973C60.4654 68.1105 59.7898 68.2353 59.4455 68.0514C59.2182 67.8895 59.0239 67.6859 58.8731 67.4513L58.4234 67.8893C58.7875 68.1543 59.3775 68.8047 59.8469 68.8419C60.2044 68.8704 60.5048 68.5748 60.7395 68.3382C61.0995 67.9668 61.3801 67.5262 61.5645 67.0433C61.7489 66.5603 61.8331 66.0449 61.812 65.5285C61.812 65.4414 61.7773 65.3578 61.7156 65.2962C61.6539 65.2346 61.5703 65.2 61.483 65.2C61.3958 65.2 61.3121 65.2346 61.2504 65.2962C61.1887 65.3578 61.154 65.4414 61.154 65.5285V66.2775C61.154 66.3646 61.1887 66.4482 61.2504 66.5098C61.3121 66.5714 61.3958 66.606 61.483 66.606C61.5703 66.606 61.6539 66.5714 61.7156 66.5098C61.7773 66.4482 61.812 66.3646 61.812 66.2775V64.4401C61.812 64.353 61.7773 64.2694 61.7156 64.2078C61.6539 64.1462 61.5703 64.1116 61.483 64.1116C61.3958 64.1116 61.3121 64.1462 61.2504 64.2078C61.1887 64.2694 61.154 64.353 61.154 64.4401C61.1528 64.8805 61.1147 65.32 61.04 65.7541L61.687 65.8417C61.6355 65.3184 61.6113 64.7928 61.6146 64.2671C61.6136 64.1884 61.5843 64.1127 61.532 64.0537C61.4798 63.9947 61.4081 63.9565 61.33 63.9459C61.2519 63.9353 61.1726 63.953 61.1065 63.9959C61.0403 64.0388 60.9918 64.1039 60.9698 64.1795C60.8711 64.5978 60.7505 65.0095 60.6342 65.419L61.2352 65.3402L61.1891 65.165C61.1584 64.7467 60.5004 64.7445 60.5311 65.165C60.5384 65.3423 60.5848 65.5158 60.6671 65.673C60.7943 65.9402 61.1913 65.846 61.2681 65.5942C61.3931 65.1825 61.505 64.7708 61.6036 64.3547L60.9566 64.2671C60.9533 64.7928 60.9775 65.3184 61.029 65.8417C61.0619 66.1789 61.6058 66.3235 61.6738 65.9293C61.7614 65.4346 61.8076 64.9336 61.812 64.4313H61.154V66.2687H61.812V65.5197H61.154C61.1927 66.3459 60.9053 67.1542 60.3535 67.771C60.268 67.8681 60.1757 67.9588 60.0771 68.0426C59.9214 68.1915 59.7789 68.1696 59.6538 67.9747C59.3424 67.8455 59.02 67.5126 58.748 67.3177C58.4761 67.1228 58.1032 67.5082 58.2962 67.7667C58.8007 68.4368 59.553 69.1836 60.4895 68.8616C61.4742 68.5134 61.608 67.1819 61.5335 66.3059C61.5093 66.0147 61.0729 65.8176 60.9215 66.1417C60.7022 66.6038 60.4829 67.0637 60.2636 67.528C60.1868 67.69 60.0442 67.9134 60.0662 68.1061C60.1386 68.5988 60.7373 68.5178 61.1058 68.4893C62.5336 68.382 62.3077 66.3607 62.1432 65.3446C62.0884 65.0073 61.5971 65.0599 61.5093 65.3446C61.4396 65.5446 61.4033 65.7547 61.4019 65.9665H62.0598C62.036 65.5899 61.9305 65.223 61.7506 64.8912C61.7212 64.8422 61.6795 64.8017 61.6298 64.7736C61.58 64.7454 61.5238 64.7306 61.4666 64.7306C61.4094 64.7306 61.3531 64.7454 61.3034 64.7736C61.2536 64.8017 61.212 64.8422 61.1825 64.8912C60.9864 65.2293 60.8541 65.6004 60.7921 65.9862L61.4501 66.0738V64.6963C61.4501 64.6092 61.4155 64.5256 61.3538 64.464C61.2921 64.4024 61.2084 64.3678 61.1211 64.3678C61.0339 64.3678 60.9502 64.4024 60.8885 64.464C60.8268 64.5256 60.7921 64.6092 60.7921 64.6963C60.7899 65.4359 60.7416 66.1746 60.6474 66.9082L61.2944 66.8206C61.22 66.4626 61.0936 66.1173 60.9193 65.7957C60.8899 65.7467 60.8483 65.7062 60.7985 65.678C60.7488 65.6499 60.6925 65.6351 60.6353 65.6351C60.5781 65.6351 60.5219 65.6499 60.4721 65.678C60.4223 65.7062 60.3807 65.7467 60.3513 65.7957C60.0653 66.4815 59.654 67.1083 59.1384 67.644L59.6889 67.7886L59.5924 67.2411C59.542 66.9498 59.1297 66.941 58.9915 67.1622C58.8825 67.3269 58.8085 67.5122 58.7742 67.7065C58.7399 67.9009 58.7459 68.1003 58.7919 68.2922C58.8467 68.6032 59.2415 68.5704 59.3929 68.3711C59.6292 68.0571 59.8411 67.7254 60.0267 67.379L59.4587 67.0462C59.307 67.3734 59.2036 67.7208 59.1516 68.0776C59.1121 68.3667 59.4565 68.6689 59.7021 68.3974C60.1736 67.8822 60.515 67.262 60.6978 66.5885C60.779 66.2906 60.3667 66.0081 60.1473 66.2687C59.7438 66.7515 59.3773 67.264 59.0507 67.8017L59.6517 68.0557L60.3206 65.5657C60.3383 65.4899 60.3285 65.4102 60.2932 65.3408C60.2578 65.2714 60.199 65.2167 60.1271 65.1863C60.0553 65.156 59.975 65.1519 59.9005 65.1748C59.8259 65.1978 59.7619 65.2462 59.7196 65.3117L58.4037 67.2148C58.1581 67.5674 58.7217 67.8718 58.9718 67.5455L60.7614 65.1803C61.0159 64.843 60.4456 64.5233 60.1934 64.8474H60.1758Z" fill="#F9CF5A"/>
<path d="M88.1571 72.7509C90.789 71.1435 92.8813 68.7454 95.2062 66.7394C97.7284 64.5648 100.376 62.5391 103.102 60.6206C108.396 56.8977 113.956 53.5667 119.512 50.2445C119.584 50.1991 119.635 50.1275 119.655 50.0448C119.676 49.9622 119.663 49.875 119.62 49.8015C119.577 49.728 119.507 49.674 119.425 49.6508C119.343 49.6277 119.256 49.6372 119.18 49.6773C113.625 52.9995 108.063 56.3239 102.768 60.0534C100.27 61.8054 97.8315 63.6625 95.4935 65.6335C92.9493 67.7797 90.6837 70.4514 87.8171 72.1837C87.4553 72.4027 87.7864 72.9721 88.1483 72.7509H88.1571Z" fill="#F9CF5A"/>
<path d="M128.006 40.0436C125.155 40.3327 122.084 41.0576 120.33 43.5476C118.814 45.6894 118.847 49.4255 120.271 51.6242C121.887 54.123 125.19 54.2128 127.756 53.4047C130.322 52.5966 132.978 51.1797 132.954 48.1181C132.941 46.4756 132.346 44.7652 131.691 43.276C131.125 41.9905 130.123 40.8671 128.605 41.0094C128.186 41.0488 128.181 41.7058 128.605 41.6664C130.638 41.4781 131.291 43.8892 131.774 45.4113C132.213 46.8326 132.618 48.5145 131.93 49.927C131.241 51.3395 129.581 52.06 128.162 52.5769C126.626 53.1331 124.94 53.4726 123.337 53.0149C120.161 52.1279 119.284 48.1093 120.198 45.258C121.251 41.973 124.979 41.0072 128.017 40.7006C128.434 40.659 128.438 40.002 128.017 40.0436H128.006Z" fill="#F9CF5A"/>
<path d="M132.393 65.4475C129.541 65.7365 126.471 66.4614 124.716 68.9514C123.201 71.0932 123.234 74.8293 124.657 77.028C126.273 79.5268 129.576 79.6166 132.143 78.8085C134.709 78.0004 137.365 76.5835 137.341 73.5219C137.327 71.8794 136.733 70.169 136.077 68.6798C135.511 67.3943 134.509 66.2709 132.991 66.4132C132.572 66.4526 132.568 67.1096 132.991 67.0702C135.024 66.8819 135.678 69.293 136.161 70.8151C136.599 72.2364 137.005 73.9183 136.316 75.3308C135.628 76.7433 133.967 77.4638 132.548 77.9807C131.013 78.5369 129.326 78.8764 127.723 78.4187C124.547 77.5317 123.67 73.5131 124.585 70.6618C125.637 67.3768 129.366 66.411 132.404 66.1044C132.82 66.0628 132.825 65.4058 132.404 65.4475H132.393Z" fill="#F9CF5A"/>
<path d="M123.705 46.4405L125.782 48.8057C125.823 48.8453 125.874 48.8736 125.929 48.8879C125.985 48.9022 126.043 48.9019 126.098 48.8871C126.153 48.8724 126.203 48.8436 126.244 48.8036C126.285 48.7636 126.315 48.7138 126.33 48.6589C126.769 47.507 126.686 46.3135 126.789 45.1024C126.902 43.8507 127.217 42.6254 127.721 41.4736C128.733 39.1374 130.448 37.174 132.629 35.8564C132.991 35.6374 132.66 35.068 132.298 35.2891C130.148 36.5821 128.423 38.4745 127.335 40.7334C126.802 41.8327 126.433 43.0034 126.238 44.2089C126.019 45.6302 126.219 47.1194 125.692 48.4837L126.243 48.337L124.177 45.9762C123.896 45.6587 123.433 46.1251 123.712 46.4405H123.705Z" fill="#F9CF5A"/>
<path d="M89.2166 75.3109C100.529 74.9663 111.845 74.8933 123.164 75.0919C123.587 75.0919 123.587 74.4349 123.164 74.4349C111.848 74.2334 100.532 74.3064 89.2166 74.6539C88.7933 74.667 88.7911 75.324 89.2166 75.3109Z" fill="#F9CF5A"/>
<path d="M125.528 68.833C129.395 70.3485 133.115 72.2149 136.641 74.4086C137 74.6276 137.332 74.0648 136.972 73.8414C133.4 71.6206 129.63 69.7322 125.712 68.2001C125.319 68.0446 125.148 68.6797 125.539 68.833H125.528Z" fill="#F9CF5A"/>
<path d="M132.55 65.8568C128.629 70.4216 126.357 76.1699 126.1 82.1786C126.083 82.6013 126.74 82.6013 126.758 82.1786C127.007 76.3424 129.211 70.7584 133.015 66.3211C133.289 66.0013 132.827 65.5349 132.55 65.8568Z" fill="#F9CF5A"/>
<path d="M44.8321 72.9262L69.3459 72.6064L72.1642 72.5692C72.6709 72.5692 73.1775 72.5517 73.6841 72.5495C74.3969 72.5495 74.8772 73.1408 74.8641 73.8635C74.8312 75.3965 73.8662 75.3417 72.6029 75.3965L69.5565 75.5345L57.1515 76.0798C54.9298 76.1783 52.7058 76.2988 50.4841 76.3754C48.4795 76.4367 44.6676 75.7841 45.5581 72.8714C45.6809 72.4663 45.047 72.2933 44.922 72.6962C44.4834 74.1285 45.2598 75.5826 46.5099 76.3338C48.2843 77.3981 50.6222 77.0368 52.5808 76.9492L67.8106 76.2593L71.5084 76.0951C72.4559 76.0513 73.7741 76.244 74.6448 75.8038C75.6668 75.2892 75.8467 73.2459 75.2019 72.3853C74.8707 71.9473 74.4057 71.9078 73.8859 71.8881C72.5217 71.8356 71.1334 71.9254 69.767 71.9429L62.174 72.0436L44.8233 72.2626C44.4 72.2626 44.4 72.9196 44.8233 72.9196L44.8321 72.9262Z" fill="#F9CF5A"/>
<path d="M143.874 153.408C143.321 153.754 142.69 153.948 142.119 154.253C141.549 154.557 140.994 155.015 140.832 155.646C140.771 155.841 140.782 156.052 140.861 156.241C141.002 156.47 141.22 156.642 141.475 156.728C142.633 157.241 143.884 157.514 145.152 157.528C146.419 157.542 147.676 157.298 148.846 156.811C149.258 156.613 149.683 156.445 150.118 156.307C150.655 156.198 151.2 156.142 151.748 156.141C152.323 156.107 152.895 156.034 153.461 155.922C153.745 155.89 154.014 155.778 154.237 155.6C154.441 155.366 154.563 155.072 154.586 154.763C154.845 153.057 154.454 151.316 153.489 149.884C153.368 149.683 153.205 149.511 153.011 149.378C152.775 149.256 152.515 149.187 152.25 149.174C151.153 149.041 150.004 148.795 148.897 148.769C148.103 148.752 147.703 149.128 147.142 149.674C145.982 150.832 145.304 152.516 143.874 153.408Z" fill="#323444"/>
<path d="M160.036 153.245C160.036 154.319 160.165 155.455 160.817 156.311C161.115 156.682 161.475 156.997 161.883 157.242C163.26 158.118 165.085 158.44 166.537 157.698C166.771 157.593 166.972 157.424 167.116 157.212C167.335 156.83 167.219 156.355 167.096 155.935L164.995 148.664C163.637 148.872 161.641 149.019 160.435 149.706C159.56 150.204 160.036 152.286 160.036 153.245Z" fill="#323444"/>
<path d="M142.641 108.476C142.514 108.877 142.054 109.063 141.801 109.4C141.505 109.796 141.536 110.346 141.644 110.828C141.776 111.538 142.11 112.196 142.606 112.722C142.858 112.983 143.169 113.18 143.512 113.296C143.855 113.413 144.222 113.446 144.58 113.392C145.286 113.259 145.896 112.635 145.92 111.919C145.908 111.593 145.838 111.272 145.714 110.97L144.218 106.652C144.212 106.621 144.2 106.592 144.182 106.567C144.163 106.542 144.14 106.521 144.113 106.505C144.057 106.492 143.998 106.503 143.949 106.533C143.596 106.7 142.887 106.875 142.681 107.241C142.475 107.607 142.791 108.08 142.641 108.476Z" fill="#FBB3B2"/>
<path d="M141.942 108.259C142.488 108.174 142.966 107.854 143.477 107.644C143.988 107.434 144.629 107.353 145.058 107.703C145.181 107.804 145.3 107.942 145.46 107.94C145.242 106.869 144.913 105.823 144.477 104.821C144.462 104.773 144.432 104.731 144.392 104.701C144.332 104.676 144.265 104.676 144.205 104.701L142.729 105.086C142.183 105.228 142.119 105.185 142.161 105.721C142.172 105.96 142.295 108.259 141.942 108.259Z" fill="#323444"/>
<path d="M141.779 77.0739C141.56 77.4112 141.56 77.8317 141.56 78.2281C141.56 80.1662 141.58 82.1153 141.867 84.0337C141.935 84.4936 142.021 84.9535 142.065 85.4177C142.114 86.064 142.125 86.7127 142.095 87.3603L141.876 95.7917C141.85 96.8231 141.797 97.9313 141.159 98.7416C140.965 99.0132 140.874 99.3445 140.902 99.6767C141.069 101.792 141.42 103.89 141.768 105.982C142.33 105.729 142.943 105.612 143.559 105.641C144.174 105.671 144.774 105.845 145.308 106.15C146.415 102.676 147.027 99.0637 147.127 95.4194C147.177 93.6258 147.1 91.8212 147.377 90.0495C147.839 87.0668 147.651 84.0074 147.311 81.0071C147.203 80.0567 146.975 79.0778 146.365 78.3419C145.788 77.6981 145.02 77.256 144.172 77.0805C143.361 76.8681 142.635 77.0871 141.779 77.0739Z" fill="#5B5583"/>
<path opacity="0.1" d="M141.779 77.0739C141.56 77.4112 141.56 77.8317 141.56 78.2281C141.56 80.1662 141.58 82.1153 141.867 84.0337C141.935 84.4936 142.021 84.9535 142.065 85.4177C142.114 86.064 142.125 86.7127 142.095 87.3603L141.876 95.7917C141.85 96.8231 141.797 97.9313 141.159 98.7416C140.965 99.0132 140.874 99.3445 140.902 99.6767C141.069 101.792 141.42 103.89 141.768 105.982C142.33 105.729 142.943 105.612 143.559 105.641C144.174 105.671 144.774 105.845 145.308 106.15C146.415 102.676 147.027 99.0637 147.127 95.4194C147.177 93.6258 147.1 91.8212 147.377 90.0495C147.839 87.0668 147.651 84.0074 147.311 81.0071C147.203 80.0567 146.975 79.0778 146.365 78.3419C145.788 77.6981 145.02 77.256 144.172 77.0805C143.361 76.8681 142.635 77.0871 141.779 77.0739Z" fill="black"/>
<path d="M144.46 101.525C142.989 109.052 143.792 116.845 146.767 123.915C147.024 124.439 147.204 124.996 147.302 125.571C147.423 126.644 146.927 127.676 146.644 128.714C145.986 131.074 146.366 133.588 146.787 136.004C146.962 137.011 147.143 138.018 147.328 139.024C147.51 140.005 147.686 141.072 147.23 141.961C147.622 143.594 147.855 145.213 148.247 146.847C148.289 146.976 148.302 147.113 148.285 147.247C148.206 147.461 148.066 147.647 147.883 147.784C147.591 148.08 147.38 148.447 147.273 148.849C147.166 149.251 147.165 149.674 147.271 150.077C148.274 149.358 149.671 149.61 150.816 150.077C151.961 150.543 153.088 151.172 154.325 151.172C154.145 149.722 153.972 148.2 154.507 146.84C154.818 146.052 155.367 145.307 155.351 144.464C155.336 143.708 154.873 143.034 154.761 142.287C154.72 141.822 154.737 141.354 154.814 140.894C155.108 138.214 154.774 135.507 154.441 132.831C154.403 132.303 154.279 131.785 154.073 131.298C153.917 130.982 153.684 130.68 153.689 130.328C153.689 129.918 154.02 129.585 154.143 129.195C154.362 128.477 153.959 127.5 154.566 127.056C156.167 125.882 155.553 123.079 155.518 121.097C155.49 119.387 155.417 117.679 155.299 115.972C156.307 118.803 156.719 121.81 156.509 124.807C156.439 125.788 156.31 126.819 156.694 127.726C156.987 128.422 157.571 128.996 157.729 129.734C157.827 130.19 157.757 130.66 157.779 131.125C157.801 131.589 157.959 132.095 158.36 132.329C158.391 134.44 158.58 136.698 158.613 138.809C158.591 139.889 158.679 140.967 158.876 142.029C158.974 142.366 159.029 142.715 159.038 143.067C158.989 143.507 158.872 143.938 158.692 144.343C158.309 145.474 158.209 146.68 158.401 147.857C158.592 149.035 159.068 150.148 159.788 151.1C160.306 150.182 161.385 149.696 162.438 149.619C163.49 149.542 164.53 149.807 165.55 150.075C165.394 148.795 165.649 147.499 166.278 146.374C166.447 146.12 166.576 145.842 166.662 145.55C166.78 144.994 166.504 144.44 166.355 143.89C166.111 143.014 166.197 142.07 166.254 141.155C166.445 138.089 166.309 135.012 165.848 131.974C165.777 131.376 165.636 130.788 165.429 130.222C165.35 130.021 165.254 129.828 165.188 129.625C165.084 129.259 165.026 128.883 165.012 128.503L164.76 124.999C164.583 122.544 165.39 120.12 165.953 117.724C166.206 116.651 166.48 115.58 166.649 114.49C166.879 113.005 166.916 111.487 167.254 110.022C167.557 108.708 168.103 107.427 168.217 106.08C168.392 103.993 167.524 101.976 166.682 100.062C166.331 99.2737 165.004 99.3526 164.151 99.2124C158.099 98.2204 151.726 98.2138 146.019 100.45C145.429 100.694 144.897 101.06 144.46 101.525Z" fill="#3C354C"/>
<path d="M148.822 62.6551L149.493 65.2612C149.676 65.8589 149.777 66.4784 149.794 67.103C149.801 67.3308 149.75 67.5567 149.647 67.76C149.536 67.9268 149.395 68.0711 149.23 68.1848C148.772 68.533 148.454 69.3455 147.929 69.5864C148.199 70.055 148.572 69.7506 149.059 69.985C149.917 70.4011 150.702 70.9989 151.632 71.2048C152.509 71.3975 153.43 71.2157 154.301 70.9858C155.536 70.6507 156.764 70.1886 157.757 69.3805C158.751 68.5724 159.317 67.8585 159.312 66.5817C158.216 66.711 157.24 65.605 156.755 64.6108C156.587 64.2328 156.463 63.8367 156.387 63.4304L155.799 60.8484C155.158 60.9885 154.636 61.4463 154.024 61.685C153.413 61.9237 152.689 61.9456 152.009 61.9762C150.802 62.031 149.602 62.1863 148.421 62.4405C148.258 62.4733 148.054 62.5763 148.094 62.734" fill="#FBB3B2"/>
<path opacity="0.1" d="M148.822 62.6551L149.493 65.2612C149.676 65.8589 149.777 66.4784 149.794 67.103C149.801 67.3308 149.75 67.5567 149.647 67.76C149.536 67.9268 149.395 68.0711 149.23 68.1848C148.772 68.533 148.454 69.3455 147.929 69.5864C148.199 70.055 148.572 69.7506 149.059 69.985C149.917 70.4011 150.702 70.9989 151.632 71.2048C152.509 71.3975 153.43 71.2157 154.301 70.9858C155.536 70.6507 156.764 70.1886 157.757 69.3805C158.751 68.5724 159.317 67.8585 159.312 66.5817C158.216 66.711 157.24 65.605 156.755 64.6108C156.587 64.2328 156.463 63.8367 156.387 63.4304L155.799 60.8484C155.158 60.9885 154.636 61.4463 154.024 61.685C153.413 61.9237 152.689 61.9456 152.009 61.9762C150.802 62.031 149.602 62.1863 148.421 62.4405C148.258 62.4733 148.054 62.5763 148.094 62.734" fill="black"/>
<path d="M151.704 64.0915C154.911 64.0915 157.512 61.4952 157.512 58.2925C157.512 55.0897 154.911 52.4934 151.704 52.4934C148.496 52.4934 145.896 55.0897 145.896 58.2925C145.896 61.4952 148.496 64.0915 151.704 64.0915Z" fill="#FBB3B2"/>
<path d="M153.303 67.852C153.613 67.1822 154.062 66.5853 154.619 66.1C155.437 65.3839 156.555 64.8036 156.748 63.7349L158.52 65.7956C158.617 65.8912 158.692 66.0062 158.74 66.1329C158.762 66.2517 158.759 66.3739 158.73 66.4914C158.701 66.6088 158.648 66.7188 158.573 66.814C158.134 67.5126 157.444 68.0119 156.79 68.5178C155.292 69.7026 153.858 70.9658 152.493 72.302C152.433 72.3718 152.353 72.4208 152.263 72.4422C152.178 72.4445 152.095 72.4208 152.024 72.3743C150.847 71.7572 149.805 70.9113 148.96 69.8865C148.897 69.8099 148.818 69.7223 148.715 69.7288C148.652 69.7402 148.595 69.77 148.55 69.8142C147.96 70.296 147.315 70.872 146.559 70.7975C147.539 70.0946 148.094 68.9207 148.3 67.7316C148.341 67.3246 148.425 66.923 148.55 66.5337C148.615 66.3388 148.727 66.163 148.876 66.0217C149.025 65.8804 149.207 65.7779 149.405 65.7234C148.927 66.4526 149.254 67.4863 149.897 68.0754C150.521 68.6046 151.27 68.967 152.072 69.1288C152.818 69.2689 153.037 68.4258 153.303 67.852Z" fill="#323444"/>
<path d="M145.747 102.121C146.574 102.324 147.357 102.67 148.16 102.927C149.623 103.384 151.162 103.546 152.689 103.402C153.158 103.392 153.615 103.246 154.004 102.984C154.108 102.9 154.202 102.802 154.312 102.725C154.495 102.615 154.694 102.533 154.902 102.482C156.913 101.854 158.597 100.498 160.231 99.1708C160.284 99.127 160.343 99.0722 160.339 99.0022C160.331 98.9544 160.308 98.9106 160.273 98.8773L159.413 97.8918C157.158 98.2751 154.849 98.1306 152.561 98.0736C152.092 98.0528 151.621 98.0652 151.153 98.1108C150.701 98.1634 150.256 98.2773 149.811 98.3736C148.12 98.7416 146.392 98.8817 144.679 99.1226C144.559 99.1314 144.443 99.1674 144.339 99.2277C144.267 99.2835 144.205 99.3518 144.157 99.4292L143.556 100.272C143.323 100.556 143.151 100.885 143.052 101.238C142.911 101.895 143.205 102.114 143.764 102.029C144.425 101.932 145.098 101.963 145.747 102.121Z" fill="#323444"/>
<path d="M152.469 71.2989C151.799 70.6124 151.038 70.0194 150.208 69.5359C149.873 69.3234 149.501 69.1748 149.112 69.098C148.916 69.0593 148.713 69.064 148.52 69.1117C148.326 69.1593 148.144 69.2488 147.989 69.3739C147.793 69.5469 147.671 69.7878 147.482 69.9696C147.245 70.1687 146.973 70.3224 146.679 70.4229C145.681 70.8488 144.735 71.3874 143.859 72.0281C143.381 72.3616 142.951 72.7579 142.58 73.2063C141.587 74.4765 141.437 76.2044 141.464 77.8162C141.484 78.9375 142.56 79.7697 143.302 80.6085C143.997 81.4338 144.626 82.3125 145.184 83.2364C145.583 83.8671 145.999 84.5504 145.949 85.3016C145.907 85.917 145.548 86.4951 145.605 87.1083C145.624 87.3273 145.695 87.5288 145.714 87.7412C145.754 88.1792 145.58 88.6172 145.537 89.0552C145.477 89.675 145.679 90.2903 145.69 90.9145C145.682 91.3418 145.628 91.7669 145.528 92.1825C145.107 94.1841 144.578 96.1967 144.686 98.2399L143.471 98.4589C143.586 98.5716 143.673 98.7097 143.724 98.8621C143.776 99.0145 143.791 99.1769 143.768 99.3362C143.745 99.4955 143.685 99.6472 143.593 99.779C143.5 99.9108 143.378 100.019 143.236 100.095C145.133 100.728 147.184 100.408 149.195 100.406C150.86 100.406 152.518 100.625 154.18 100.594C155.843 100.564 157.558 100.263 158.929 99.324C159.301 99.0699 159.644 98.7721 160.036 98.5509C160.562 98.2788 161.129 98.0939 161.714 98.0034C162.798 97.797 163.9 97.6987 165.004 97.71C165.543 97.71 166.131 97.7319 166.561 97.4077C167.035 97.0486 167.155 96.3982 167.219 95.8091C167.283 95.1871 167.322 94.563 167.333 93.9388C167.351 93.4528 167.326 92.9661 167.256 92.4847C167.19 92.1327 167.105 91.7846 167 91.4423L166.173 88.534C165.831 87.3339 166.307 86.0177 166.407 84.7738C166.432 84.4803 166.436 84.1387 166.21 83.9504C166.129 83.8825 166.017 83.8365 165.991 83.7314C165.979 83.6815 165.978 83.6297 165.987 83.5792C165.996 83.5287 166.015 83.4806 166.043 83.4379C166.482 82.5619 167.14 81.7889 167.741 80.9983C168.75 79.6115 169.687 78.1737 170.548 76.6906C170.279 73.5871 168.97 70.6647 166.833 68.395C166.394 67.9197 165.892 67.4642 165.278 67.2496C164.877 67.1272 164.46 67.0602 164.041 67.0503C162.321 66.9343 160.532 66.8313 159.034 65.9685C158.926 65.8941 158.805 65.8427 158.676 65.8174C158.345 65.7801 158.104 66.1064 157.889 66.3649C157.336 67.0219 156.523 67.3985 155.808 67.8825C154.474 68.787 153.432 70.0309 152.469 71.2989Z" fill="#5B5583"/>
<path d="M170.697 77.5864C171.039 78.6683 171.007 79.8246 171.118 80.9524C171.185 81.633 171.304 82.3074 171.476 82.9694C171.554 83.3332 171.695 83.6807 171.893 83.9965C172.09 84.2856 172.373 84.5199 172.498 84.8462C172.566 85.0673 172.597 85.2983 172.588 85.5295L172.614 87.0405C172.671 87.8413 172.548 88.6446 172.257 89.3926L171.311 92.2636C170.8 93.8185 170.276 95.3975 169.355 96.7509C169.225 96.9799 169.029 97.1641 168.791 97.2787C168.606 97.3277 168.415 97.3571 168.223 97.3663C167.889 97.4258 167.586 97.5999 167.366 97.8585C167.146 98.1171 167.024 98.4441 167.019 98.7832C166.8 98.463 166.526 98.1835 166.21 97.9576L164.286 96.4246C163.629 95.8902 162.942 95.3471 162.144 95.0383C163.217 94.7035 164.171 94.0646 164.888 93.1993C165.605 92.3339 166.055 91.2793 166.184 90.1634C166.183 89.8312 166.258 89.5032 166.403 89.2042C166.563 88.9458 166.859 88.7487 166.881 88.4443C166.907 88.0611 166.473 87.772 166.473 87.3888C166.473 87.1347 166.662 86.9245 166.745 86.6858C166.823 86.3908 166.823 86.0807 166.745 85.7857L166.48 84.314C166.464 84.1666 166.419 84.0237 166.348 83.8935C166.249 83.7688 166.139 83.653 166.019 83.5475C165.563 83.0373 165.765 82.2335 166.019 81.605C166.603 80.2099 167.356 78.8912 168.261 77.6784C168.583 77.2711 168.881 76.8456 169.153 76.4038C169.386 76.0009 169.438 75.4424 169.684 75.0898C170 75.9177 170.428 76.7345 170.697 77.5864Z" fill="#5B5583"/>
<path d="M162.076 95.1279C161.978 95.2005 161.893 95.2894 161.826 95.3907C161.567 95.7146 161.223 95.9597 160.832 96.0981C161.051 96.2558 161.251 96.4113 161.457 96.5711C162.983 97.7474 164.379 99.0812 165.624 100.55C165.763 100.058 166.589 100.093 166.791 99.6218C166.839 99.487 166.854 99.343 166.835 99.2013C166.793 98.4636 166.687 97.7309 166.519 97.0113C166.453 96.6408 166.303 96.2904 166.081 95.9864C165.774 95.6163 165.295 95.4389 164.839 95.2856C164.148 95.0447 162.778 94.7052 162.076 95.1279Z" fill="#323444"/>
<path d="M159.334 96.8494C158.676 97.3355 158.099 97.9444 157.36 98.2772C156.838 98.5138 156.244 98.6167 155.788 98.9693C156.036 99.5146 156.68 99.7971 157.279 99.7752C157.878 99.7164 158.453 99.5061 158.948 99.1642C159.341 98.9233 159.801 98.643 160.229 98.8116C160.295 99.1445 160.01 99.4576 160.01 99.7949C160.01 100.132 160.29 100.377 160.567 100.555C161.883 101.402 163.576 101.332 165.144 101.234C165.234 101.237 165.323 101.211 165.396 101.159C165.43 101.12 165.456 101.074 165.472 101.024C165.488 100.974 165.495 100.922 165.491 100.87C165.51 100.524 165.519 100.18 165.521 99.8343C165.566 99.5553 165.529 99.2695 165.417 99.0104C165.304 98.7512 165.12 98.5296 164.885 98.3714C164.034 97.641 163.116 96.9921 162.144 96.4333C161.179 95.8748 160.201 96.2055 159.334 96.8494Z" fill="#FBB3B2"/>
<path d="M153.744 55.8682C152.77 55.9843 152.061 56.7442 152.16 57.5699C152.259 58.3955 153.127 58.9649 154.101 58.8466C155.075 58.7284 155.783 57.9706 155.685 57.1472C155.586 56.3238 154.717 55.7522 153.744 55.8682ZM154.075 58.6189C153.25 58.7174 152.515 58.2334 152.43 57.537C152.344 56.8406 152.947 56.1967 153.77 56.0982C154.592 55.9996 155.329 56.4836 155.415 57.18C155.5 57.8765 154.897 58.5203 154.075 58.6189Z" fill="#3C354C"/>
<path d="M148.997 56.4377C148.024 56.5537 147.315 57.3137 147.414 58.1371C147.513 58.9605 148.381 59.5321 149.355 59.416C150.329 59.2999 151.037 58.54 150.939 57.7144C150.84 56.8888 149.971 56.3216 148.997 56.4377ZM149.329 59.1861C148.504 59.2846 147.769 58.8006 147.686 58.1064C147.603 57.4122 148.201 56.7662 149.026 56.6654C149.851 56.5647 150.585 57.0509 150.669 57.7473C150.752 58.4437 150.151 59.0875 149.329 59.1861Z" fill="#3C354C"/>
<path d="M145.473 56.8604L147.589 57.3115L147.381 57.8677L145.385 57.283L145.473 56.8604Z" fill="#3C354C"/>
<path d="M157.27 55.4456L155.318 56.3851L155.654 56.8756L157.455 55.8354L157.27 55.4456Z" fill="#3C354C"/>
<path d="M150.743 57.1715L152.228 56.9941L152.151 57.3621L150.877 57.4475L150.743 57.1715Z" fill="#3C354C"/>
<path d="M147.864 56.6743C148.003 56.3742 148.078 56.0481 148.083 55.7172C148.088 55.5192 148.122 55.323 148.184 55.1347C148.292 54.8956 148.456 54.686 148.662 54.5237C149.346 53.9456 150.327 53.6477 151.294 53.6061C152.349 53.5577 153.398 53.7841 154.338 54.2631C154.625 54.3975 154.883 54.5881 155.095 54.8237C155.402 55.1982 155.468 55.6822 155.777 56.0523C155.988 56.2769 156.253 56.4432 156.548 56.5353C156.842 56.6274 157.155 56.6421 157.457 56.5779C157.564 56.1968 157.424 55.7939 157.479 55.4041C157.565 55.0701 157.682 54.7446 157.828 54.4317C158.167 53.4309 157.672 52.2702 156.65 51.6724C156.292 51.4534 155.869 51.311 155.601 51.0154C155.334 50.7197 155.27 50.4131 155.086 50.1175C154.597 49.3357 153.331 48.9699 152.369 49.3313C152.066 49.4452 151.798 49.6182 151.491 49.7408C150.921 49.9751 150.272 50.0168 149.645 50.0956C149.026 50.1527 148.422 50.311 147.855 50.5642C147.313 50.8314 146.859 51.2607 146.734 51.7731C146.675 52.0096 146.688 52.2549 146.629 52.4892C146.326 53.6784 144.372 54.2565 144.262 55.4698C144.223 55.9078 144.462 56.3282 144.76 56.6852C144.966 56.9283 145.46 57.5787 145.809 57.6729C146.157 57.767 146.423 57.4364 146.756 57.3225C147.282 57.1582 147.6 57.1232 147.864 56.6743Z" fill="#CBCEDA"/>
<path d="M172.605 133.807C172.605 144.81 179.519 153.714 188.061 153.714L172.605 133.807Z" fill="#46455B"/>
<path d="M188.061 153.716C188.061 142.589 195.777 133.586 205.311 133.586L188.061 153.716Z" fill="#F9CF5A"/>
<path d="M178.207 134.806C178.207 145.259 182.615 153.716 188.061 153.716L178.207 134.806Z" fill="#F9CF5A"/>
<path d="M188.061 153.717C188.061 139.499 196.979 127.993 207.998 127.993L188.061 153.717Z" fill="#46455B"/>
<path opacity="0.1" d="M187.392 157.518C189.515 157.518 191.235 157.228 191.235 156.87C191.235 156.512 189.515 156.222 187.392 156.222C185.27 156.222 183.55 156.512 183.55 156.87C183.55 157.228 185.27 157.518 187.392 157.518Z" fill="#F9CF5A"/>
<path d="M184.811 153.857C184.811 153.857 187.004 153.789 187.662 153.32C188.32 152.851 191.033 152.289 191.198 153.042C191.362 153.795 194.487 156.789 192.016 156.809C189.544 156.828 186.265 156.423 185.607 156.022C184.949 155.622 184.811 153.857 184.811 153.857Z" fill="#A8A8A8"/>
<path opacity="0.2" d="M192.062 156.546C189.588 156.565 186.313 156.16 185.653 155.76C185.151 155.455 184.951 154.358 184.883 153.854H184.811C184.811 153.854 184.949 155.619 185.609 156.02C186.269 156.421 189.544 156.826 192.018 156.806C192.733 156.806 192.979 156.546 192.965 156.171C192.867 156.399 192.606 156.541 192.062 156.546Z" fill="black"/>
<path d="M4.93262 140.237C4.93262 148.997 10.4311 156.075 17.2279 156.075L4.93262 140.237Z" fill="#46455B"/>
<path d="M17.2278 156.075C17.2278 147.223 23.3688 140.06 30.9509 140.06L17.2278 156.075Z" fill="#F9CF5A"/>
<path d="M9.38696 141.034C9.38696 149.356 12.8961 156.08 17.2278 156.08L9.38696 141.034Z" fill="#F9CF5A"/>
<path d="M17.2278 156.075C17.2278 144.764 24.3229 135.61 33.0893 135.61L17.2278 156.075Z" fill="#46455B"/>
<path opacity="0.1" d="M16.6949 159.102C18.3835 159.102 19.7523 158.87 19.7523 158.585C19.7523 158.299 18.3835 158.068 16.6949 158.068C15.0064 158.068 13.6376 158.299 13.6376 158.585C13.6376 158.87 15.0064 159.102 16.6949 159.102Z" fill="#F9CF5A"/>
<path d="M14.6421 156.187C14.6421 156.187 16.3857 156.132 16.9099 155.749C17.4341 155.365 19.5944 154.927 19.7238 155.53C19.8532 156.132 22.3447 158.51 20.3818 158.525C18.4188 158.541 15.8067 158.219 15.2825 157.901C14.7583 157.584 14.6421 156.187 14.6421 156.187Z" fill="#A8A8A8"/>
<path opacity="0.2" d="M20.4103 158.335C18.4364 158.35 15.8352 158.029 15.311 157.709C14.9119 157.468 14.7539 156.594 14.6991 156.193H14.6421C14.6421 156.193 14.7518 157.597 15.2759 157.917C15.8001 158.237 18.4079 158.556 20.3752 158.541C20.9433 158.541 21.1407 158.335 21.1297 158.035C21.0507 158.21 20.8336 158.322 20.4103 158.335Z" fill="black"/>
</g>
<defs>
<clipPath id="clip0">
<rect width="208" height="166" fill="white"/>
</clipPath>
</defs>
</svg>
